<?xml version="1.0" encoding="UTF-8"?>
<svg version="1.1" xmlns="http://www.w3.org/2000/svg" width="625" height="625">
<path d="M0 0 C0.763125 0.00193359 1.52625 0.00386719 2.3125 0.00585938 C7.8341284 0.13663478 7.8341284 0.13663478 10.23046875 2.0234375 C10.60816406 2.53132813 10.98585937 3.03921875 11.375 3.5625 C13.97415538 4.75277984 13.97415538 4.75277984 16.375 5.5625 C16.375 6.2225 16.375 6.8825 16.375 7.5625 C17.8290625 7.995625 17.8290625 7.995625 19.3125 8.4375 C22.375 9.5625 22.375 9.5625 23.375 11.5625 C25.35022846 12.61058041 27.34981509 13.6145411 29.375 14.5625 C29.375 15.2225 29.375 15.8825 29.375 16.5625 C30.096875 16.665625 30.81875 16.76875 31.5625 16.875 C37.06280867 18.2195199 41.18950503 21.86351534 45.60546875 25.2578125 C47.34722535 26.61979524 47.34722535 26.61979524 49.375 27.5625 C49.375 28.2225 49.375 28.8825 49.375 29.5625 C51.025 29.8925 52.675 30.2225 54.375 30.5625 C54.87 32.0475 54.87 32.0475 55.375 33.5625 C56.055625 33.624375 56.73625 33.68625 57.4375 33.75 C61.32951162 34.82651385 64.40944754 36.81915032 67.375 39.5625 C67.375 40.2225 67.375 40.8825 67.375 41.5625 C68.24125 41.81 69.1075 42.0575 70 42.3125 C73.58560064 43.64050024 76.33827987 45.24880848 79.375 47.5625 C79.375 48.2225 79.375 48.8825 79.375 49.5625 C80.055625 49.645 80.73625 49.7275 81.4375 49.8125 C85.36499525 50.81526474 87.99757557 52.28923356 91.375 54.5625 C92.3125 56.8125 92.3125 56.8125 92.375 58.5625 C93.24125 58.645 94.1075 58.7275 95 58.8125 C98.90762781 59.68086174 101.27491802 61.05290983 104.375 63.5625 C104.375 64.5525 104.375 65.5425 104.375 66.5625 C105.11105469 66.50449219 105.84710938 66.44648437 106.60546875 66.38671875 C109.86846918 66.59382033 111.12859423 67.39437802 113.6875 69.375 C114.38488281 69.89707031 115.08226562 70.41914062 115.80078125 70.95703125 C117.375 72.5625 117.375 72.5625 117.375 75.5625 C118.509375 75.68625 119.64375 75.81 120.8125 75.9375 C121.988125 76.14375 123.16375 76.35 124.375 76.5625 C124.705 77.2225 125.035 77.8825 125.375 78.5625 C127.07580053 79.55052893 128.81130788 80.47931604 130.5625 81.375 C141.07750221 86.96750443 141.07750221 86.96750443 143.375 91.5625 C145.6890622 92.29325648 148.02328869 92.96388258 150.375 93.5625 C150.375 94.2225 150.375 94.8825 150.375 95.5625 C151.695 95.8925 153.015 96.2225 154.375 96.5625 C154.375 97.5525 154.375 98.5425 154.375 99.5625 C155.468125 99.645 156.56125 99.7275 157.6875 99.8125 C161.375 100.5625 161.375 100.5625 163.125 102.5625 C163.74375 103.5525 163.74375 103.5525 164.375 104.5625 C165.365 104.8925 166.355 105.2225 167.375 105.5625 C167.375 106.2225 167.375 106.8825 167.375 107.5625 C168.509375 107.85125 169.64375 108.14 170.8125 108.4375 C172.5759375 108.994375 172.5759375 108.994375 174.375 109.5625 C174.705 110.2225 175.035 110.8825 175.375 111.5625 C178.13753318 113.15439312 180.96828719 114.57941694 183.80859375 116.02734375 C186.375 117.5625 186.375 117.5625 188.375 120.5625 C190.03316784 121.25003301 191.69959336 121.91811283 193.375 122.5625 C193.705 123.2225 194.035 123.8825 194.375 124.5625 C196.39963255 125.21463292 196.39963255 125.21463292 198.375 125.5625 C198.313125 124.634375 198.25125 123.70625 198.1875 122.75 C198.375 119.5625 198.375 119.5625 199.55859375 117.9140625 C203.59518933 114.91048816 209.78642755 115.23329131 214.6171875 115.84765625 C216.5 116.3125 216.5 116.3125 219.375 117.5625 C219.705 118.5525 220.035 119.5425 220.375 120.5625 C221.14585937 120.58828125 221.91671875 120.6140625 222.7109375 120.640625 C224.21527344 120.72570312 224.21527344 120.72570312 225.75 120.8125 C226.74773437 120.85890625 227.74546875 120.9053125 228.7734375 120.953125 C231.375 121.5625 231.375 121.5625 232.7265625 123.609375 C233.04753906 124.57617188 233.04753906 124.57617188 233.375 125.5625 C234.261875 125.500625 235.14875 125.43875 236.0625 125.375 C239.80390195 125.58677747 241.30312136 126.51458091 244.375 128.5625 C246.02869357 129.26072617 247.69227014 129.93748605 249.375 130.5625 C249.375 131.2225 249.375 131.8825 249.375 132.5625 C250.303125 132.68625 251.23125 132.81 252.1875 132.9375 C255.375 133.5625 255.375 133.5625 258.375 135.5625 C258.375 136.5525 258.375 137.5425 258.375 138.5625 C259.48875 138.500625 260.6025 138.43875 261.75 138.375 C262.94625 138.436875 264.1425 138.49875 265.375 138.5625 C266.035 139.5525 266.695 140.5425 267.375 141.5625 C268.035 141.5625 268.695 141.5625 269.375 141.5625 C270.88160662 140.00002272 270.88160662 140.00002272 272.375 138.0625 C273.9375 136.09375 273.9375 136.09375 275.375 134.5625 C276.035 134.5625 276.695 134.5625 277.375 134.5625 C277.601875 134.005625 277.82875 133.44875 278.0625 132.875 C279.76117978 129.88208801 281.79572687 127.82722763 284.375 125.5625 C285.365 125.5625 286.355 125.5625 287.375 125.5625 C287.375 124.5725 287.375 123.5825 287.375 122.5625 C289.89605227 119.74485334 292.64049498 117.32105201 295.5625 114.9375 C298.49380346 112.68527665 298.49380346 112.68527665 300.375 109.5625 C301.365 109.5625 302.355 109.5625 303.375 109.5625 C303.705 108.2425 304.035 106.9225 304.375 105.5625 C305.035 105.5625 305.695 105.5625 306.375 105.5625 C306.41625 104.53125 306.4575 103.5 306.5 102.4375 C307.42218285 98.35354738 308.19012193 96.49003495 311.234375 93.7265625 C316.74309712 90.73094354 323.77093479 90.92973649 329.71875 92.375 C330.5953125 92.766875 331.471875 93.15875 332.375 93.5625 C333.48583501 96.89500502 333.54259585 99.49288958 333.5625 103 C333.57667969 104.13308594 333.59085937 105.26617187 333.60546875 106.43359375 C333.38571135 109.41707979 332.93343386 111.05545423 331.375 113.5625 C330.715 113.5625 330.055 113.5625 329.375 113.5625 C329.38285522 115.08387573 329.38285522 115.08387573 329.39086914 116.63598633 C329.40896807 120.39867267 329.42044994 124.16135515 329.42993164 127.92407227 C329.43496065 129.55265958 329.44178465 131.18124237 329.45043945 132.80981445 C329.46256769 135.15056472 329.46824263 137.4912553 329.47265625 139.83203125 C329.47781754 140.56025589 329.48297882 141.28848053 329.48829651 142.03877258 C329.48864279 145.15852288 329.36955604 147.57883188 328.375 150.5625 C327.715 150.8925 327.055 151.2225 326.375 151.5625 C326.06258629 154.11191373 325.86196579 156.56611513 325.75 159.125 C325.71132813 159.83591797 325.67265625 160.54683594 325.6328125 161.27929688 C325.53828217 163.03992425 325.45554183 164.80117728 325.375 166.5625 C327.355 166.8925 329.335 167.2225 331.375 167.5625 C331.705 168.8825 332.035 170.2025 332.375 171.5625 C334.685 171.5625 336.995 171.5625 339.375 171.5625 C340.035 172.8825 340.695 174.2025 341.375 175.5625 C343.685 175.5625 345.995 175.5625 348.375 175.5625 C348.705 176.2225 349.035 176.8825 349.375 177.5625 C352.17229537 178.1686555 354.97246279 178.52148131 357.80859375 178.90234375 C360.375 179.5625 360.375 179.5625 362.375 182.5625 C364.70048007 183.25606423 367.03380445 183.92399212 369.375 184.5625 C369.705 185.2225 370.035 185.8825 370.375 186.5625 C371.53 186.871875 372.685 187.18125 373.875 187.5 C375.03 187.850625 376.185 188.20125 377.375 188.5625 C377.705 189.5525 378.035 190.5425 378.375 191.5625 C379.303125 191.500625 380.23125 191.43875 381.1875 191.375 C384.375 191.5625 384.375 191.5625 386.05151367 192.82788086 C388.34542354 195.83437959 387.76270685 199.50003002 387.6875 203.125 C387.69072266 203.90552734 387.69394531 204.68605469 387.69726562 205.49023438 C387.64216981 211.29533019 387.64216981 211.29533019 385.375 213.5625 C383.43554688 213.83374023 383.43554688 213.83374023 381.09375 213.87109375 C380.25199219 213.89623047 379.41023438 213.92136719 378.54296875 213.94726562 C376.76439581 213.98242043 374.98574141 214.01367089 373.20703125 214.04101562 C372.36527344 214.06744141 371.52351563 214.09386719 370.65625 214.12109375 C369.49706055 214.14127563 369.49706055 214.14127563 368.31445312 214.16186523 C365.96958784 214.40943493 365.96958784 214.40943493 364.375 217.5625 C361.74802936 217.78387393 359.36606036 217.84412025 356.75 217.75 C356.04359375 217.73646484 355.3371875 217.72292969 354.609375 217.70898438 C352.86425872 217.6736104 351.11953392 217.61980221 349.375 217.5625 C349.045 218.8825 348.715 220.2025 348.375 221.5625 C342.54968221 223.24288013 337.06752098 223.90859368 331.01171875 224.21875 C328.14785875 224.39435786 328.14785875 224.39435786 325.375 226.5625 C323.11328125 226.7578125 323.11328125 226.7578125 320.6875 226.6875 C319.87925781 226.66945313 319.07101562 226.65140625 318.23828125 226.6328125 C317.62339844 226.60960937 317.00851562 226.58640625 316.375 226.5625 C316.39071045 227.45557861 316.4064209 228.34865723 316.42260742 229.26879883 C316.47375439 232.58428756 316.51135812 235.89935675 316.53979492 239.21508789 C316.55487589 240.64972552 316.5753438 242.08431708 316.60131836 243.51879883 C316.63773437 245.58165859 316.65473243 247.64390858 316.66796875 249.70703125 C316.6836792 250.94815674 316.69938965 252.18928223 316.71557617 253.46801758 C316.34206399 256.86175733 315.92047575 257.48708206 313.375 259.5625 C313.045 260.5525 312.715 261.5425 312.375 262.5625 C313.365 262.2325 314.355 261.9025 315.375 261.5625 C315.705 260.5725 316.035 259.5825 316.375 258.5625 C318.1171875 257.68359375 318.1171875 257.68359375 320.25 257 C323.08426461 256.07441912 324.82658826 255.26144116 327.375 253.5625 C330.5625 253.4375 330.5625 253.4375 333.375 253.5625 C333.375 252.9025 333.375 252.2425 333.375 251.5625 C339.05545499 249.66131791 344.28282683 249.18704442 350.25 249 C351.95587924 248.940345 353.66162727 248.87676269 355.3671875 248.80859375 C356.11339355 248.78466553 356.85959961 248.7607373 357.62841797 248.73608398 C359.40269602 248.74604031 359.40269602 248.74604031 360.375 247.5625 C361.87238124 247.4645943 363.37442892 247.43275136 364.875 247.4375 C365.6896875 247.43492187 366.504375 247.43234375 367.34375 247.4296875 C369.375 247.5625 369.375 247.5625 370.375 248.5625 C373.6241696 248.80107539 376.86596203 248.95718641 380.12109375 249.08007812 C390.68557903 249.59948232 399.77508128 253.57994785 408.375 259.5625 C410.68792374 260.93521084 413.02800906 262.24818507 415.375 263.5625 C415.375 264.5525 415.375 265.5425 415.375 266.5625 C417.025 266.8925 418.675 267.2225 420.375 267.5625 C420.375 268.5525 420.375 269.5425 420.375 270.5625 C421.695 270.8925 423.015 271.2225 424.375 271.5625 C424.375 272.5525 424.375 273.5425 424.375 274.5625 C425.365 274.5625 426.355 274.5625 427.375 274.5625 C427.643125 275.366875 427.91125 276.17125 428.1875 277 C428.579375 277.845625 428.97125 278.69125 429.375 279.5625 C430.365 279.8925 431.355 280.2225 432.375 280.5625 C435.32737975 284.40954028 436.88613054 287.98954381 438.375 292.5625 C439.035 292.8925 439.695 293.2225 440.375 293.5625 C440.96855614 296.21110427 441.11709269 298.85447322 441.375 301.5625 C442.035 301.5625 442.695 301.5625 443.375 301.5625 C444.035 303.8725 444.695 306.1825 445.375 308.5625 C446.035 308.2325 446.695 307.9025 447.375 307.5625 C451.95304119 307.28950513 456.53975272 307.33080438 461.125 307.3125 C463.03925781 307.2815625 463.03925781 307.2815625 464.9921875 307.25 C466.22710937 307.24484375 467.46203125 307.2396875 468.734375 307.234375 C469.86327148 307.2250293 470.99216797 307.21568359 472.15527344 307.20605469 C475.7885894 307.60828712 478.2221403 308.7579732 481.375 310.5625 C481.375 311.2225 481.375 311.8825 481.375 312.5625 C482.01308594 312.61148437 482.65117188 312.66046875 483.30859375 312.7109375 C484.13488281 312.78570312 484.96117187 312.86046875 485.8125 312.9375 C486.63621094 313.00710938 487.45992187 313.07671875 488.30859375 313.1484375 C488.99050781 313.28507812 489.67242188 313.42171875 490.375 313.5625 C490.705 314.2225 491.035 314.8825 491.375 315.5625 C492.6125 315.81 493.85 316.0575 495.125 316.3125 C499.00484452 317.19991125 500.65452238 318.55788019 503.02734375 321.84765625 C504.6417736 323.90195974 506.45402248 325.4889419 508.4375 327.1875 C512.90977291 331.02087678 516.44250943 334.39573091 519.375 339.5625 C519.705 339.8925 520.035 340.2225 520.375 340.5625 C520.41580783 342.56208364 520.41754356 344.56295254 520.375 346.5625 C521.365 346.5625 522.355 346.5625 523.375 346.5625 C524.65817892 350.41203676 524.44143637 353.50988135 524.375 357.5625 C525.365 357.8925 526.355 358.2225 527.375 358.5625 C528.8227922 361.45808441 529.375 363.30438938 529.375 366.5625 C530.2721875 366.9646875 530.2721875 366.9646875 531.1875 367.375 C533.50198145 368.63143279 534.78401439 369.46529169 536.375 371.5625 C537.05755989 373.89123375 537.72550775 376.22432791 538.375 378.5625 C539.035 378.8925 539.695 379.2225 540.375 379.5625 C540.77057327 381.61069049 541.06672749 383.67848887 541.3125 385.75 C541.83452669 389.59211644 542.23152865 392.28107544 544 395.75 C546.06027253 399.96419381 545.95108905 403.95378759 545.375 408.5625 C544.44333174 410.59523074 543.4400015 412.59634339 542.375 414.5625 C541.81599535 417.09827471 541.38397336 419.62749063 541 422.1953125 C540.28360539 424.90865708 539.15076166 426.41527799 537.375 428.5625 C536.6325 429.8 536.6325 429.8 535.875 431.0625 C532.125 437.3125 532.125 437.3125 528.375 438.5625 C528.045 439.5525 527.715 440.5425 527.375 441.5625 C524.77257586 443.21070195 523.51251221 443.5625 520.375 443.5625 C520.148125 444.18125 519.92125 444.8 519.6875 445.4375 C517.9894983 448.18664561 516.37847742 448.56134086 513.375 449.5625 C513.045 449.8925 512.715 450.2225 512.375 450.5625 C510.08691198 450.80429404 507.80034185 450.94586599 505.50390625 451.0859375 C502.99027629 451.39123755 502.99027629 451.39123755 501.375 454.5625 C499.53407288 455.07078552 499.53407288 455.07078552 497.32446289 455.24389648 C496.51727814 455.30817841 495.71009338 455.37246033 494.87844849 455.43869019 C490.97633303 455.63167206 487.0900134 455.68584863 483.18359375 455.66015625 C482.35287857 455.6587413 481.52216339 455.65732635 480.66627502 455.65586853 C478.04831125 455.6503317 475.43043733 455.63779162 472.8125 455.625 C471.02278771 455.61997681 469.23307405 455.61541535 467.44335938 455.61132812 C463.08720567 455.60038308 458.731118 455.58316319 454.375 455.5625 C454.106875 456.201875 453.83875 456.84125 453.5625 457.5 C452.375 459.5625 452.375 459.5625 449.375 460.5625 C449.045 461.5525 448.715 462.5425 448.375 463.5625 C447.385 463.8925 446.395 464.2225 445.375 464.5625 C444.694375 465.3359375 444.694375 465.3359375 444 466.125 C442.375 467.5625 442.375 467.5625 439.6875 467.75 C438.924375 467.688125 438.16125 467.62625 437.375 467.5625 C437.21 468.160625 437.045 468.75875 436.875 469.375 C434.83235631 472.35385539 432.61710159 472.79934325 429.25 473.8515625 C427.17053879 474.4933084 427.17053879 474.4933084 425.375 476.5625 C422.9921875 476.7578125 422.9921875 476.7578125 420.25 476.6875 C419.33992188 476.66945313 418.42984375 476.65140625 417.4921875 476.6328125 C416.44417969 476.59800781 416.44417969 476.59800781 415.375 476.5625 C415.045 477.5525 414.715 478.5425 414.375 479.5625 C411.91778491 480.79110755 410.18335096 480.73546626 407.4375 480.80859375 C406.46039063 480.84146484 405.48328125 480.87433594 404.4765625 480.90820312 C402.408966 480.96939773 400.3412503 481.02669001 398.2734375 481.08007812 C397.29632813 481.11423828 396.31921875 481.14839844 395.3125 481.18359375 C394.41402344 481.2086499 393.51554687 481.23370605 392.58984375 481.25952148 C390.1713979 481.36293781 390.1713979 481.36293781 388.375 483.5625 C386.34375 483.82128906 386.34375 483.82128906 383.875 483.828125 C382.988125 483.83070313 382.10125 483.83328125 381.1875 483.8359375 C380.259375 483.82820313 379.33125 483.82046875 378.375 483.8125 C377.446875 483.82023437 376.51875 483.82796875 375.5625 483.8359375 C374.2321875 483.83207031 374.2321875 483.83207031 372.875 483.828125 C372.0603125 483.82586914 371.245625 483.82361328 370.40625 483.82128906 C368.375 483.5625 368.375 483.5625 366.375 481.5625 C362.79702105 481.26989096 359.25904072 481.14718109 355.671875 481.08398438 C351.20130494 480.92542609 348.83369465 480.62088277 345.375 477.5625 C344.17875 477.418125 342.9825 477.27375 341.75 477.125 C340.63625 476.939375 339.5225 476.75375 338.375 476.5625 C337.70833333 475.22916667 337.04166667 473.89583333 336.375 472.5625 C335.22 472.3975 334.065 472.2325 332.875 472.0625 C331.72 471.8975 330.565 471.7325 329.375 471.5625 C328.70833333 470.22916667 328.04166667 468.89583333 327.375 467.5625 C325.05343403 467.15520772 322.7181213 466.81811323 320.375 466.5625 C320.045 465.9025 319.715 465.2425 319.375 464.5625 C318.385 464.2325 317.395 463.9025 316.375 463.5625 C316.375 462.5725 316.375 461.5825 316.375 460.5625 C315.70597656 461.03558594 315.03695313 461.50867188 314.34765625 461.99609375 C310.76497152 463.88394733 307.8309425 464.21397758 303.8125 464.625 C298.96563204 464.98130841 298.96563204 464.98130841 294.47509766 466.58105469 C291.92439488 467.77308272 290.08498804 467.80605381 287.27734375 467.79296875 C286.31119141 467.79103516 285.34503906 467.78910156 284.34960938 467.78710938 C283.34736328 467.77486328 282.34511719 467.76261719 281.3125 467.75 C280.30638672 467.74935547 279.30027344 467.74871094 278.26367188 467.74804688 C270.79697066 467.70315689 270.79697066 467.70315689 267.375 466.5625 C267.375 465.9025 267.375 465.2425 267.375 464.5625 C266.77171875 464.57410156 266.1684375 464.58570313 265.546875 464.59765625 C264.34804688 464.61119141 264.34804688 464.61119141 263.125 464.625 C261.94164062 464.64240234 261.94164062 464.64240234 260.734375 464.66015625 C258.43575329 464.56501462 256.54449782 464.32566406 254.375 463.5625 C254.045 462.9025 253.715 462.2425 253.375 461.5625 C251.6734375 461.129375 251.6734375 461.129375 249.9375 460.6875 C248.761875 460.31625 247.58625 459.945 246.375 459.5625 C245.70833333 458.22916667 245.04166667 456.89583333 244.375 455.5625 C240.82911499 454.26329254 240.82911499 454.26329254 237.375 453.5625 C237.375 452.5725 237.375 451.5825 237.375 450.5625 C236.055 450.5625 234.735 450.5625 233.375 450.5625 C228.69670082 446.50797404 225.35430114 441.25272246 222.453125 435.84375 C220.89186933 433.00947048 219.59212784 430.77324173 217.25 428.5 C214.89034778 426.0616927 214.33429221 423.782981 213.375 420.5625 C212.385 419.0775 212.385 419.0775 211.375 417.5625 C211.04358989 415.04965626 210.93475267 412.56624268 210.81640625 410.03515625 C210.58743718 407.50447921 210.58743718 407.50447921 208.87231445 405.87695312 C206.80536727 402.68199808 206.94423101 399.74167558 206.9765625 396.05859375 C206.97225723 394.97905174 206.97225723 394.97905174 206.96786499 393.87770081 C206.96582854 392.36059784 206.97132914 390.84346837 206.98388672 389.32641602 C206.99997143 387.00412427 206.98401346 384.68356651 206.96484375 382.36132812 C206.9668258 380.88541283 206.97066868 379.40949861 206.9765625 377.93359375 C206.97048981 377.23979111 206.96441711 376.54598846 206.9581604 375.8311615 C207.02893863 370.98451092 207.02893863 370.98451092 208.87231445 368.73657227 C209.6161438 368.15540649 209.6161438 368.15540649 210.375 367.5625 C210.87592349 365.38938991 210.87592349 365.38938991 210.9375 363.0625 C211.13023855 359.55816274 211.32799625 358.63300563 213.375 355.5625 C214.035 355.5625 214.695 355.5625 215.375 355.5625 C215.313125 354.82 215.25125 354.0775 215.1875 353.3125 C215.40739994 350.08730092 216.15752188 348.86526574 218.375 346.5625 C219.035 346.5625 219.695 346.5625 220.375 346.5625 C220.705 345.2425 221.035 343.9225 221.375 342.5625 C222.035 342.5625 222.695 342.5625 223.375 342.5625 C223.54 341.881875 223.705 341.20125 223.875 340.5 C226.06813993 336.20510097 229.44772982 333.31899907 233.375 330.5625 C235.6328125 329.859375 235.6328125 329.859375 237.375 329.5625 C237.375 328.5725 237.375 327.5825 237.375 326.5625 C238.48875 326.315 239.6025 326.0675 240.75 325.8125 C241.94625 325.4 243.1425 324.9875 244.375 324.5625 C244.684375 323.881875 244.99375 323.20125 245.3125 322.5 C245.663125 321.860625 246.01375 321.22125 246.375 320.5625 C249.06889788 319.87647632 251.58100082 319.74275801 254.375 319.5625 C254.705 318.5725 255.035 317.5825 255.375 316.5625 C256.06207031 316.51351563 256.74914062 316.46453125 257.45703125 316.4140625 C258.80861328 316.30191406 258.80861328 316.30191406 260.1875 316.1875 C261.08082031 316.11789062 261.97414063 316.04828125 262.89453125 315.9765625 C265.61898499 315.69604964 265.61898499 315.69604964 268.375 313.5625 C269.220625 313.418125 270.06625 313.27375 270.9375 313.125 C273.72926675 312.77428049 273.72926675 312.77428049 275.375 309.5625 C276.035 309.5625 276.695 309.5625 277.375 309.5625 C277.313125 307.70625 277.313125 307.70625 277.25 305.8125 C277.23841709 302.54612038 277.5181298 300.3478053 279.375 297.5625 C280.035 297.5625 280.695 297.5625 281.375 297.5625 C281.478125 296.82 281.58125 296.0775 281.6875 295.3125 C282.375 292.5625 282.375 292.5625 283.9375 290.5 C285.77223128 288.42919005 285.77223128 288.42919005 285.375 284.5625 C284.715 284.2325 284.055 283.9025 283.375 283.5625 C282.77994001 281.51725679 282.42033219 279.46916043 282.03515625 277.375 C281.81730469 276.776875 281.59945313 276.17875 281.375 275.5625 C280.385 275.2325 279.395 274.9025 278.375 274.5625 C277.67008733 272.24043475 277.00287571 269.90656932 276.375 267.5625 C275.715 267.2325 275.055 266.9025 274.375 266.5625 C273.70833333 264.22916667 273.04166667 261.89583333 272.375 259.5625 C271.715 259.2325 271.055 258.9025 270.375 258.5625 C270.375 257.5725 270.375 256.5825 270.375 255.5625 C269.776875 255.376875 269.17875 255.19125 268.5625 255 C265.33239946 252.8773625 264.75648018 250.10629698 263.375 246.5625 C262.5396875 245.1703125 262.5396875 245.1703125 261.6875 243.75 C260.375 241.5625 260.375 241.5625 260.375 239.5625 C255.425 239.5625 250.475 239.5625 245.375 239.5625 C245.045 240.5525 244.715 241.5425 244.375 242.5625 C240.09202469 243.61869003 235.94514354 243.67952092 231.5625 243.625 C230.86962891 243.62048828 230.17675781 243.61597656 229.46289062 243.61132812 C227.76688932 243.59963156 226.07093297 243.58169924 224.375 243.5625 C224.045 244.5525 223.715 245.5425 223.375 246.5625 C218.425 246.5625 213.475 246.5625 208.375 246.5625 C207.715 247.8825 207.055 249.2025 206.375 250.5625 C200.18470552 253.58215584 193.32679958 253.42841276 186.875 251.3125 C183.375 249.5625 183.375 249.5625 182.65625 247.453125 C182.5634375 246.82921875 182.470625 246.2053125 182.375 245.5625 C181.715 245.5625 181.055 245.5625 180.375 245.5625 C180.375 244.9025 180.375 244.2425 180.375 243.5625 C179.405625 243.43875 178.43625 243.315 177.4375 243.1875 C176.426875 242.98125 175.41625 242.775 174.375 242.5625 C174.045 241.9025 173.715 241.2425 173.375 240.5625 C171.6425 239.82 171.6425 239.82 169.875 239.0625 C166.375 237.5625 166.375 237.5625 165.375 235.5625 C164.715 235.2325 164.055 234.9025 163.375 234.5625 C161.375 233.5625 161.375 233.5625 160.375 231.5625 C159.385 231.2325 158.395 230.9025 157.375 230.5625 C156.385 230.2325 155.395 229.9025 154.375 229.5625 C154.045 228.9025 153.715 228.2425 153.375 227.5625 C151.35830173 226.42899466 151.35830173 226.42899466 149.375 225.5625 C149.375 224.9025 149.375 224.2425 149.375 223.5625 C147.065 222.9025 144.755 222.2425 142.375 221.5625 C142.045 220.2425 141.715 218.9225 141.375 217.5625 C139.725 217.2325 138.075 216.9025 136.375 216.5625 C136.045 215.5725 135.715 214.5825 135.375 213.5625 C134.59125 213.624375 133.8075 213.68625 133 213.75 C132.13375 213.688125 131.2675 213.62625 130.375 213.5625 C129.715 212.5725 129.055 211.5825 128.375 210.5625 C127.385 210.2325 126.395 209.9025 125.375 209.5625 C124.941875 209.10875 124.50875 208.655 124.0625 208.1875 C121.78775431 205.99700415 119.21853977 204.88948522 116.375 203.5625 C116.375 202.9025 116.375 202.2425 116.375 201.5625 C115.055 201.2325 113.735 200.9025 112.375 200.5625 C112.375 199.5725 112.375 198.5825 112.375 197.5625 C110.065 197.2325 107.755 196.9025 105.375 196.5625 C105.045 195.5725 104.715 194.5825 104.375 193.5625 C103.715 193.3975 103.055 193.2325 102.375 193.0625 C101.715 192.8975 101.055 192.7325 100.375 192.5625 C100.045 191.5725 99.715 190.5825 99.375 189.5625 C98.2303125 189.4078125 98.2303125 189.4078125 97.0625 189.25 C94.07596183 188.48600186 93.40807752 187.76500065 91.375 185.5625 C90.488125 185.046875 89.60125 184.53125 88.6875 184 C87.924375 183.525625 87.16125 183.05125 86.375 182.5625 C86.375 181.9025 86.375 181.2425 86.375 180.5625 C84.725 180.5625 83.075 180.5625 81.375 180.5625 C81.1275 179.923125 80.88 179.28375 80.625 178.625 C79.55937567 176.37508459 79.55937567 176.37508459 77.25 175.8125 C76.63125 175.73 76.0125 175.6475 75.375 175.5625 C75.375 174.9025 75.375 174.2425 75.375 173.5625 C74.281875 173.294375 73.18875 173.02625 72.0625 172.75 C68.6106132 171.63837544 67.62095351 171.14534654 65.375 168.5625 C64.385 168.2325 63.395 167.9025 62.375 167.5625 C62.375 166.5725 62.375 165.5825 62.375 164.5625 C61.50875 164.48 60.6425 164.3975 59.75 164.3125 C55.81831356 163.4387919 53.48938378 162.09746354 50.375 159.5625 C49.5 157.3125 49.5 157.3125 49.375 155.5625 C47.395 155.2325 45.415 154.9025 43.375 154.5625 C43.045 153.5725 42.715 152.5825 42.375 151.5625 C40.725 151.2325 39.075 150.9025 37.375 150.5625 C37.045 149.5725 36.715 148.5825 36.375 147.5625 C35.694375 147.500625 35.01375 147.43875 34.3125 147.375 C30.4485633 146.30625155 27.22747255 144.40675217 24.375 141.5625 C24.375 140.5725 24.375 139.5825 24.375 138.5625 C23.0446875 138.4078125 23.0446875 138.4078125 21.6875 138.25 C18.27398744 137.54153513 16.13576472 136.67367302 13.375 134.5625 C13.375 133.5725 13.375 132.5825 13.375 131.5625 C12.55 131.52125 11.725 131.48 10.875 131.4375 C6.22256227 130.27439057 2.83089929 127.86928688 -0.625 124.5625 C-0.625 123.9025 -0.625 123.2425 -0.625 122.5625 C-2.935 121.9025 -5.245 121.2425 -7.625 120.5625 C-7.625 119.9025 -7.625 119.2425 -7.625 118.5625 C-8.264375 118.459375 -8.90375 118.35625 -9.5625 118.25 C-10.243125 118.023125 -10.92375 117.79625 -11.625 117.5625 C-11.955 116.5725 -12.285 115.5825 -12.625 114.5625 C-13.346875 114.48 -14.06875 114.3975 -14.8125 114.3125 C-18.20749638 113.40716763 -19.99152834 111.84946223 -22.625 109.5625 C-23.615 108.9025 -24.605 108.2425 -25.625 107.5625 C-25.625 106.9025 -25.625 106.2425 -25.625 105.5625 C-26.285 105.5625 -26.945 105.5625 -27.625 105.5625 C-27.74127503 101.97944008 -27.8122736 98.39686583 -27.875 94.8125 C-27.92527344 93.28882813 -27.92527344 93.28882813 -27.9765625 91.734375 C-28.07372457 84.35005741 -28.07372457 84.35005741 -26.09375 80.875 C-22.68869561 79.06471792 -19.62382989 79.12824749 -15.875 79.3125 C-15.17761719 79.33054687 -14.48023438 79.34859375 -13.76171875 79.3671875 C-12.04888461 79.41411446 -10.33676176 79.48585395 -8.625 79.5625 C-8.295 80.5525 -7.965 81.5425 -7.625 82.5625 C-6.84125 82.706875 -6.0575 82.85125 -5.25 83 C-2.625 83.5625 -2.625 83.5625 -0.625 84.5625 C-0.625 85.2225 -0.625 85.8825 -0.625 86.5625 C0.15875 86.830625 0.9425 87.09875 1.75 87.375 C4.375 88.5625 4.375 88.5625 6.375 91.5625 C9.42929073 92.77534876 9.42929073 92.77534876 12.375 93.5625 C12.375 94.2225 12.375 94.8825 12.375 95.5625 C13.014375 95.665625 13.65375 95.76875 14.3125 95.875 C14.993125 96.101875 15.67375 96.32875 16.375 96.5625 C16.705 97.5525 17.035 98.5425 17.375 99.5625 C18.1175 99.665625 18.86 99.76875 19.625 99.875 C22.5723519 100.61183797 24.15883074 101.51049142 26.375 103.5625 C26.375 104.2225 26.375 104.8825 26.375 105.5625 C27.365 105.5625 28.355 105.5625 29.375 105.5625 C29.375 106.5525 29.375 107.5425 29.375 108.5625 C31.685 108.8925 33.995 109.2225 36.375 109.5625 C36.375 110.2225 36.375 110.8825 36.375 111.5625 C37.035 111.789375 37.695 112.01625 38.375 112.25 C48.415 116.6425 48.415 116.6425 50.375 120.5625 C51.220625 121.0575 52.06625 121.5525 52.9375 122.0625 C53.741875 122.5575 54.54625 123.0525 55.375 123.5625 C55.375 124.2225 55.375 124.8825 55.375 125.5625 C57.025 125.5625 58.675 125.5625 60.375 125.5625 C60.705 126.5525 61.035 127.5425 61.375 128.5625 C64.38347418 129.78770264 64.38347418 129.78770264 67.375 130.5625 C67.375 131.2225 67.375 131.8825 67.375 132.5625 C68.15875 132.871875 68.9425 133.18125 69.75 133.5 C72.375 134.5625 72.375 134.5625 74.375 135.5625 C74.375 136.5525 74.375 137.5425 74.375 138.5625 C75.179375 138.68625 75.98375 138.81 76.8125 138.9375 C77.658125 139.14375 78.50375 139.35 79.375 139.5625 C79.705 140.2225 80.035 140.8825 80.375 141.5625 C82.02491582 142.26960678 83.6957762 142.92812656 85.375 143.5625 C88.99586262 145.22809681 91.63669709 146.69972878 94.375 149.5625 C95.07625 149.913125 95.7775 150.26375 96.5 150.625 C98.375 151.5625 98.375 151.5625 99.375 153.5625 C101.01863134 154.28409424 102.68550386 154.95601421 104.375 155.5625 C104.375 156.5525 104.375 157.5425 104.375 158.5625 C105.035 158.624375 105.695 158.68625 106.375 158.75 C110.58454332 159.89008465 113.77430619 162.15734906 117.375 164.5625 C117.973125 164.94148437 118.57125 165.32046875 119.1875 165.7109375 C123.24712898 168.30675795 123.24712898 168.30675795 124.375 170.5625 C125.2 170.8925 126.025 171.2225 126.875 171.5625 C129.375 172.5625 129.375 172.5625 130.375 174.5625 C132.35666034 175.5983679 134.35973831 176.59362419 136.375 177.5625 C141.22115385 180.25480769 141.22115385 180.25480769 142.375 182.5625 C144.3467304 183.61714649 146.35262948 184.60855164 148.375 185.5625 C150.375 186.5625 152.375 187.5625 154.375 188.5625 C154.375 189.5525 154.375 190.5425 154.375 191.5625 C154.99375 191.706875 155.6125 191.85125 156.25 192 C158.375 192.5625 158.375 192.5625 160.375 193.5625 C160.375 194.2225 160.375 194.8825 160.375 195.5625 C161.15875 195.645 161.9425 195.7275 162.75 195.8125 C163.61625 196.06 164.4825 196.3075 165.375 196.5625 C166.07437532 197.87897119 166.74229133 199.21272151 167.375 200.5625 C169.34580157 201.30526031 169.34580157 201.30526031 171.375 201.5625 C172.035 201.8925 172.695 202.2225 173.375 202.5625 C173.375 203.2225 173.375 203.8825 173.375 204.5625 C175.025 204.8925 176.675 205.2225 178.375 205.5625 C178.705 206.5525 179.035 207.5425 179.375 208.5625 C180.695 208.5625 182.015 208.5625 183.375 208.5625 C184.8125 209.875 184.8125 209.875 186.375 211.5625 C187.261875 212.078125 188.14875 212.59375 189.0625 213.125 C189.825625 213.599375 190.58875 214.07375 191.375 214.5625 C191.375 215.2225 191.375 215.8825 191.375 216.5625 C192.3340625 216.7171875 192.3340625 216.7171875 193.3125 216.875 C193.993125 217.101875 194.67375 217.32875 195.375 217.5625 C195.705 218.5525 196.035 219.5425 196.375 220.5625 C197.365 220.5625 198.355 220.5625 199.375 220.5625 C199.375 219.9025 199.375 219.2425 199.375 218.5625 C199.99375 218.315 200.6125 218.0675 201.25 217.8125 C203.72568687 216.35621361 204.32625002 215.18437494 205.375 212.5625 C206.035 212.5625 206.695 212.5625 207.375 212.5625 C207.375 210.5825 207.375 208.6025 207.375 206.5625 C207.99375 206.315 208.6125 206.0675 209.25 205.8125 C211.49831869 204.75334075 211.49831869 204.75334075 212.30078125 202.6640625 C213.4898046 200.33790045 214.64706331 199.28908445 216.6875 197.6875 C219.12620732 195.69080838 221.20941618 193.70494331 223.1875 191.25 C225.375 188.5625 225.375 188.5625 227.375 187.5625 C227.04539784 182.54714948 227.04539784 182.54714948 224.375 178.5625 C223.55859375 176.72265625 223.55859375 176.72265625 222.8125 174.625 C222.56371094 173.93535156 222.31492187 173.24570313 222.05859375 172.53515625 C221.48559529 170.88164641 220.92839154 169.22267463 220.375 167.5625 C219.385 167.5625 218.395 167.5625 217.375 167.5625 C215.375 164.5625 215.375 164.5625 214.375 161.5 C213.58878109 158.48194266 213.58878109 158.48194266 211.375 156.5625 C210.75 153.9375 210.75 153.9375 210.375 151.5625 C209.776875 152.2225 209.17875 152.8825 208.5625 153.5625 C206.375 155.5625 206.375 155.5625 203.375 155.5625 C203.375 156.5525 203.375 157.5425 203.375 158.5625 C200.79491408 159.85254296 198.81758426 159.76660224 195.9375 159.8125 C194.48537109 159.85117187 194.48537109 159.85117187 193.00390625 159.890625 C189.9481498 159.50922301 189.31111877 158.84803665 187.375 156.5625 C184.77584462 155.37222016 184.77584462 155.37222016 182.375 154.5625 C182.375 153.5725 182.375 152.5825 182.375 151.5625 C180.065 151.2325 177.755 150.9025 175.375 150.5625 C175.045 149.5725 174.715 148.5825 174.375 147.5625 C172.52144103 146.98537195 172.52144103 146.98537195 170.375 146.5625 C168.26953125 145.44140625 168.26953125 145.44140625 166.1875 144.125 C165.49269531 143.69316406 164.79789063 143.26132813 164.08203125 142.81640625 C162.375 141.5625 162.375 141.5625 161.375 139.5625 C158.78814734 137.86256825 156.14369755 136.44684878 153.375 135.0625 C147.80357143 132.27678571 147.80357143 132.27678571 145.375 130.5625 C145.375 129.5725 145.375 128.5825 145.375 127.5625 C144.2303125 127.376875 144.2303125 127.376875 143.0625 127.1875 C140.375 126.5625 140.375 126.5625 137.375 124.5625 C137.375 123.9025 137.375 123.2425 137.375 122.5625 C136.50875 122.294375 135.6425 122.02625 134.75 121.75 C125.91432584 118.64115169 125.91432584 118.64115169 124.375 115.5625 C123.42625 115.088125 122.4775 114.61375 121.5 114.125 C118.75435579 112.7521779 117.42520373 111.71033248 115.375 109.5625 C114.385 109.2325 113.395 108.9025 112.375 108.5625 C112.375 107.5725 112.375 106.5825 112.375 105.5625 C111.385 105.4696875 111.385 105.4696875 110.375 105.375 C106.88487403 104.42975755 104.44296917 102.8691031 101.44140625 100.8984375 C99.47973818 99.63021353 97.48675258 98.49430429 95.4375 97.375 C92.375 95.5625 92.375 95.5625 91.375 93.5625 C90.529375 93.0675 89.68375 92.5725 88.8125 92.0625 C88.008125 91.5675 87.20375 91.0725 86.375 90.5625 C86.375 89.9025 86.375 89.2425 86.375 88.5625 C84.395 88.2325 82.415 87.9025 80.375 87.5625 C80.375 86.9025 80.375 86.2425 80.375 85.5625 C78.725 85.2325 77.075 84.9025 75.375 84.5625 C75.375 83.5725 75.375 82.5825 75.375 81.5625 C74.6325 81.459375 73.89 81.35625 73.125 81.25 C70.1776481 80.51316203 68.59116926 79.61450858 66.375 77.5625 C66.375 76.9025 66.375 76.2425 66.375 75.5625 C64.395 75.0675 64.395 75.0675 62.375 74.5625 C62.375 73.9025 62.375 73.2425 62.375 72.5625 C61.1065625 72.4696875 61.1065625 72.4696875 59.8125 72.375 C55.60712309 71.38100182 52.51111074 69.54087736 49.375 66.5625 C49.375 65.9025 49.375 65.2425 49.375 64.5625 C48.59125 64.418125 47.8075 64.27375 47 64.125 C44.375 63.5625 44.375 63.5625 42.375 62.5625 C42.375 61.5725 42.375 60.5825 42.375 59.5625 C40.725 59.2325 39.075 58.9025 37.375 58.5625 C37.045 57.5725 36.715 56.5825 36.375 55.5625 C35.611875 55.624375 34.84875 55.68625 34.0625 55.75 C30.84452212 55.52548992 30.43992043 54.89675788 28.375 52.5625 C26.27510348 51.38675289 26.27510348 51.38675289 24.375 50.5625 C24.375 49.9025 24.375 49.2425 24.375 48.5625 C23.42625 48.315 22.4775 48.0675 21.5 47.8125 C18.375 46.5625 18.375 46.5625 17 44.4375 C16.79375 43.81875 16.5875 43.2 16.375 42.5625 C15.385 42.5625 14.395 42.5625 13.375 42.5625 C13.045 41.5725 12.715 40.5825 12.375 39.5625 C10.05560793 38.8488409 7.71976551 38.1877708 5.375 37.5625 C2.84005977 36.23741761 0.8539864 35.06144417 -1.125 33 C-2.62750217 31.38059795 -2.62750217 31.38059795 -5.125 30.5625 C-7.70994614 29.52852155 -8.81408315 28.62036006 -10.625 26.5625 C-11.13804688 26.20671875 -11.65109375 25.8509375 -12.1796875 25.484375 C-14.50619844 22.39074423 -14.1376356 18.96802383 -14.125 15.25 C-14.15335938 14.50298828 -14.18171875 13.75597656 -14.2109375 12.98632812 C-14.2244728 9.13215142 -13.86777877 6.26441875 -11.6328125 3.0546875 C-7.6340821 -0.25854626 -5.02899054 -0.24458401 0 0 Z " fill="#10C4DF" transform="translate(39.625,46.4375)"/>
<path d="M0 0 C0.763125 0.00193359 1.52625 0.00386719 2.3125 0.00585938 C7.8341284 0.13663478 7.8341284 0.13663478 10.23046875 2.0234375 C10.60816406 2.53132813 10.98585937 3.03921875 11.375 3.5625 C13.97415538 4.75277984 13.97415538 4.75277984 16.375 5.5625 C16.375 6.2225 16.375 6.8825 16.375 7.5625 C17.8290625 7.995625 17.8290625 7.995625 19.3125 8.4375 C22.375 9.5625 22.375 9.5625 23.375 11.5625 C25.35022846 12.61058041 27.34981509 13.6145411 29.375 14.5625 C29.375 15.2225 29.375 15.8825 29.375 16.5625 C30.096875 16.665625 30.81875 16.76875 31.5625 16.875 C37.06280867 18.2195199 41.18950503 21.86351534 45.60546875 25.2578125 C47.34722535 26.61979524 47.34722535 26.61979524 49.375 27.5625 C49.375 28.2225 49.375 28.8825 49.375 29.5625 C51.025 29.8925 52.675 30.2225 54.375 30.5625 C54.87 32.0475 54.87 32.0475 55.375 33.5625 C56.055625 33.624375 56.73625 33.68625 57.4375 33.75 C61.32951162 34.82651385 64.40944754 36.81915032 67.375 39.5625 C67.375 40.2225 67.375 40.8825 67.375 41.5625 C68.24125 41.81 69.1075 42.0575 70 42.3125 C73.58560064 43.64050024 76.33827987 45.24880848 79.375 47.5625 C79.375 48.2225 79.375 48.8825 79.375 49.5625 C80.055625 49.645 80.73625 49.7275 81.4375 49.8125 C85.36499525 50.81526474 87.99757557 52.28923356 91.375 54.5625 C92.3125 56.8125 92.3125 56.8125 92.375 58.5625 C93.24125 58.645 94.1075 58.7275 95 58.8125 C98.90762781 59.68086174 101.27491802 61.05290983 104.375 63.5625 C104.375 64.5525 104.375 65.5425 104.375 66.5625 C105.11105469 66.50449219 105.84710938 66.44648437 106.60546875 66.38671875 C109.86846918 66.59382033 111.12859423 67.39437802 113.6875 69.375 C114.38488281 69.89707031 115.08226562 70.41914062 115.80078125 70.95703125 C117.375 72.5625 117.375 72.5625 117.375 75.5625 C118.509375 75.68625 119.64375 75.81 120.8125 75.9375 C121.988125 76.14375 123.16375 76.35 124.375 76.5625 C124.705 77.2225 125.035 77.8825 125.375 78.5625 C127.07580053 79.55052893 128.81130788 80.47931604 130.5625 81.375 C141.07750221 86.96750443 141.07750221 86.96750443 143.375 91.5625 C145.6890622 92.29325648 148.02328869 92.96388258 150.375 93.5625 C150.375 94.2225 150.375 94.8825 150.375 95.5625 C151.695 95.8925 153.015 96.2225 154.375 96.5625 C154.375 97.5525 154.375 98.5425 154.375 99.5625 C155.468125 99.645 156.56125 99.7275 157.6875 99.8125 C161.375 100.5625 161.375 100.5625 163.125 102.5625 C163.74375 103.5525 163.74375 103.5525 164.375 104.5625 C165.365 104.8925 166.355 105.2225 167.375 105.5625 C167.375 106.2225 167.375 106.8825 167.375 107.5625 C168.509375 107.85125 169.64375 108.14 170.8125 108.4375 C172.5759375 108.994375 172.5759375 108.994375 174.375 109.5625 C174.705 110.2225 175.035 110.8825 175.375 111.5625 C178.13753318 113.15439312 180.96828719 114.57941694 183.80859375 116.02734375 C186.375 117.5625 186.375 117.5625 188.375 120.5625 C190.03316784 121.25003301 191.69959336 121.91811283 193.375 122.5625 C193.705 123.2225 194.035 123.8825 194.375 124.5625 C196.39963255 125.21463292 196.39963255 125.21463292 198.375 125.5625 C198.313125 124.634375 198.25125 123.70625 198.1875 122.75 C198.375 119.5625 198.375 119.5625 199.55859375 117.9140625 C203.59518933 114.91048816 209.78642755 115.23329131 214.6171875 115.84765625 C216.5 116.3125 216.5 116.3125 219.375 117.5625 C219.705 118.5525 220.035 119.5425 220.375 120.5625 C221.14585937 120.58828125 221.91671875 120.6140625 222.7109375 120.640625 C224.21527344 120.72570312 224.21527344 120.72570312 225.75 120.8125 C226.74773437 120.85890625 227.74546875 120.9053125 228.7734375 120.953125 C231.375 121.5625 231.375 121.5625 232.7265625 123.609375 C233.04753906 124.57617188 233.04753906 124.57617188 233.375 125.5625 C234.261875 125.500625 235.14875 125.43875 236.0625 125.375 C239.80390195 125.58677747 241.30312136 126.51458091 244.375 128.5625 C246.02869357 129.26072617 247.69227014 129.93748605 249.375 130.5625 C249.375 131.2225 249.375 131.8825 249.375 132.5625 C250.303125 132.68625 251.23125 132.81 252.1875 132.9375 C255.375 133.5625 255.375 133.5625 258.375 135.5625 C258.375 136.5525 258.375 137.5425 258.375 138.5625 C259.48875 138.500625 260.6025 138.43875 261.75 138.375 C262.94625 138.436875 264.1425 138.49875 265.375 138.5625 C266.035 139.5525 266.695 140.5425 267.375 141.5625 C268.035 141.5625 268.695 141.5625 269.375 141.5625 C270.88160662 140.00002272 270.88160662 140.00002272 272.375 138.0625 C273.9375 136.09375 273.9375 136.09375 275.375 134.5625 C276.035 134.5625 276.695 134.5625 277.375 134.5625 C277.601875 134.005625 277.82875 133.44875 278.0625 132.875 C279.76117978 129.88208801 281.79572687 127.82722763 284.375 125.5625 C285.365 125.5625 286.355 125.5625 287.375 125.5625 C287.375 124.5725 287.375 123.5825 287.375 122.5625 C289.89605227 119.74485334 292.64049498 117.32105201 295.5625 114.9375 C298.49380346 112.68527665 298.49380346 112.68527665 300.375 109.5625 C301.365 109.5625 302.355 109.5625 303.375 109.5625 C303.705 108.2425 304.035 106.9225 304.375 105.5625 C305.035 105.5625 305.695 105.5625 306.375 105.5625 C306.41625 104.53125 306.4575 103.5 306.5 102.4375 C307.42218285 98.35354738 308.19012193 96.49003495 311.234375 93.7265625 C316.74309712 90.73094354 323.77093479 90.92973649 329.71875 92.375 C330.5953125 92.766875 331.471875 93.15875 332.375 93.5625 C333.48583501 96.89500502 333.54259585 99.49288958 333.5625 103 C333.57667969 104.13308594 333.59085937 105.26617187 333.60546875 106.43359375 C333.38571135 109.41707979 332.93343386 111.05545423 331.375 113.5625 C330.715 113.5625 330.055 113.5625 329.375 113.5625 C329.38285522 115.08387573 329.38285522 115.08387573 329.39086914 116.63598633 C329.40896807 120.39867267 329.42044994 124.16135515 329.42993164 127.92407227 C329.43496065 129.55265958 329.44178465 131.18124237 329.45043945 132.80981445 C329.46256769 135.15056472 329.46824263 137.4912553 329.47265625 139.83203125 C329.47781754 140.56025589 329.48297882 141.28848053 329.48829651 142.03877258 C329.48864279 145.15852288 329.36955604 147.57883188 328.375 150.5625 C327.715 150.8925 327.055 151.2225 326.375 151.5625 C326.06258629 154.11191373 325.86196579 156.56611513 325.75 159.125 C325.71132813 159.83591797 325.67265625 160.54683594 325.6328125 161.27929688 C325.53828217 163.03992425 325.45554183 164.80117728 325.375 166.5625 C327.355 166.8925 329.335 167.2225 331.375 167.5625 C331.705 168.8825 332.035 170.2025 332.375 171.5625 C334.685 171.5625 336.995 171.5625 339.375 171.5625 C340.035 172.8825 340.695 174.2025 341.375 175.5625 C343.685 175.5625 345.995 175.5625 348.375 175.5625 C348.705 176.2225 349.035 176.8825 349.375 177.5625 C352.17229537 178.1686555 354.97246279 178.52148131 357.80859375 178.90234375 C360.375 179.5625 360.375 179.5625 362.375 182.5625 C364.70048007 183.25606423 367.03380445 183.92399212 369.375 184.5625 C369.705 185.2225 370.035 185.8825 370.375 186.5625 C371.53 186.871875 372.685 187.18125 373.875 187.5 C375.03 187.850625 376.185 188.20125 377.375 188.5625 C377.705 189.5525 378.035 190.5425 378.375 191.5625 C379.303125 191.500625 380.23125 191.43875 381.1875 191.375 C384.375 191.5625 384.375 191.5625 386.05151367 192.82788086 C388.34542354 195.83437959 387.76270685 199.50003002 387.6875 203.125 C387.69072266 203.90552734 387.69394531 204.68605469 387.69726562 205.49023438 C387.64216981 211.29533019 387.64216981 211.29533019 385.375 213.5625 C383.43554688 213.83374023 383.43554688 213.83374023 381.09375 213.87109375 C380.25199219 213.89623047 379.41023438 213.92136719 378.54296875 213.94726562 C376.76439581 213.98242043 374.98574141 214.01367089 373.20703125 214.04101562 C372.36527344 214.06744141 371.52351563 214.09386719 370.65625 214.12109375 C369.49706055 214.14127563 369.49706055 214.14127563 368.31445312 214.16186523 C365.96958784 214.40943493 365.96958784 214.40943493 364.375 217.5625 C361.74802936 217.78387393 359.36606036 217.84412025 356.75 217.75 C356.04359375 217.73646484 355.3371875 217.72292969 354.609375 217.70898438 C352.86425872 217.6736104 351.11953392 217.61980221 349.375 217.5625 C349.045 218.8825 348.715 220.2025 348.375 221.5625 C342.54968221 223.24288013 337.06752098 223.90859368 331.01171875 224.21875 C328.14785875 224.39435786 328.14785875 224.39435786 325.375 226.5625 C323.11328125 226.7578125 323.11328125 226.7578125 320.6875 226.6875 C319.87925781 226.66945313 319.07101562 226.65140625 318.23828125 226.6328125 C317.62339844 226.60960937 317.00851562 226.58640625 316.375 226.5625 C316.39071045 227.45557861 316.4064209 228.34865723 316.42260742 229.26879883 C316.47375439 232.58428756 316.51135812 235.89935675 316.53979492 239.21508789 C316.55487589 240.64972552 316.5753438 242.08431708 316.60131836 243.51879883 C316.63773437 245.58165859 316.65473243 247.64390858 316.66796875 249.70703125 C316.6836792 250.94815674 316.69938965 252.18928223 316.71557617 253.46801758 C316.375 256.5625 316.375 256.5625 314.91162109 258.37866211 C314.40453613 258.76932861 313.89745117 259.15999512 313.375 259.5625 C312.45469101 261.35451503 312.45469101 261.35451503 311.8125 263.3125 C311.43931641 264.36630859 311.43931641 264.36630859 311.05859375 265.44140625 C310.44022668 267.36011093 309.90262442 269.30438494 309.375 271.25 C307.29668645 278.13441362 302.61220183 284.8201789 296.375 288.5625 C293.796875 288.63671875 293.796875 288.63671875 291.125 288.25 C289.78695312 288.07017578 289.78695312 288.07017578 288.421875 287.88671875 C287.74640625 287.77972656 287.0709375 287.67273438 286.375 287.5625 C286.045 286.5725 285.715 285.5825 285.375 284.5625 C284.715 284.2325 284.055 283.9025 283.375 283.5625 C282.77994001 281.51725679 282.42033219 279.46916043 282.03515625 277.375 C281.81730469 276.776875 281.59945313 276.17875 281.375 275.5625 C280.385 275.2325 279.395 274.9025 278.375 274.5625 C277.67008733 272.24043475 277.00287571 269.90656932 276.375 267.5625 C275.715 267.2325 275.055 266.9025 274.375 266.5625 C273.70833333 264.22916667 273.04166667 261.89583333 272.375 259.5625 C271.715 259.2325 271.055 258.9025 270.375 258.5625 C270.375 257.5725 270.375 256.5825 270.375 255.5625 C269.776875 255.376875 269.17875 255.19125 268.5625 255 C265.33239946 252.8773625 264.75648018 250.10629698 263.375 246.5625 C262.5396875 245.1703125 262.5396875 245.1703125 261.6875 243.75 C260.375 241.5625 260.375 241.5625 260.375 239.5625 C255.425 239.5625 250.475 239.5625 245.375 239.5625 C245.045 240.5525 244.715 241.5425 244.375 242.5625 C240.09202469 243.61869003 235.94514354 243.67952092 231.5625 243.625 C230.86962891 243.62048828 230.17675781 243.61597656 229.46289062 243.61132812 C227.76688932 243.59963156 226.07093297 243.58169924 224.375 243.5625 C224.045 244.5525 223.715 245.5425 223.375 246.5625 C218.425 246.5625 213.475 246.5625 208.375 246.5625 C207.715 247.8825 207.055 249.2025 206.375 250.5625 C200.18470552 253.58215584 193.32679958 253.42841276 186.875 251.3125 C183.375 249.5625 183.375 249.5625 182.65625 247.453125 C182.5634375 246.82921875 182.470625 246.2053125 182.375 245.5625 C181.715 245.5625 181.055 245.5625 180.375 245.5625 C180.375 244.9025 180.375 244.2425 180.375 243.5625 C179.405625 243.43875 178.43625 243.315 177.4375 243.1875 C176.426875 242.98125 175.41625 242.775 174.375 242.5625 C174.045 241.9025 173.715 241.2425 173.375 240.5625 C171.6425 239.82 171.6425 239.82 169.875 239.0625 C166.375 237.5625 166.375 237.5625 165.375 235.5625 C164.715 235.2325 164.055 234.9025 163.375 234.5625 C161.375 233.5625 161.375 233.5625 160.375 231.5625 C159.385 231.2325 158.395 230.9025 157.375 230.5625 C156.385 230.2325 155.395 229.9025 154.375 229.5625 C154.045 228.9025 153.715 228.2425 153.375 227.5625 C151.35830173 226.42899466 151.35830173 226.42899466 149.375 225.5625 C149.375 224.9025 149.375 224.2425 149.375 223.5625 C147.065 222.9025 144.755 222.2425 142.375 221.5625 C142.045 220.2425 141.715 218.9225 141.375 217.5625 C139.725 217.2325 138.075 216.9025 136.375 216.5625 C136.045 215.5725 135.715 214.5825 135.375 213.5625 C134.59125 213.624375 133.8075 213.68625 133 213.75 C132.13375 213.688125 131.2675 213.62625 130.375 213.5625 C129.715 212.5725 129.055 211.5825 128.375 210.5625 C127.385 210.2325 126.395 209.9025 125.375 209.5625 C124.941875 209.10875 124.50875 208.655 124.0625 208.1875 C121.78775431 205.99700415 119.21853977 204.88948522 116.375 203.5625 C116.375 202.9025 116.375 202.2425 116.375 201.5625 C115.055 201.2325 113.735 200.9025 112.375 200.5625 C112.375 199.5725 112.375 198.5825 112.375 197.5625 C110.065 197.2325 107.755 196.9025 105.375 196.5625 C105.045 195.5725 104.715 194.5825 104.375 193.5625 C103.715 193.3975 103.055 193.2325 102.375 193.0625 C101.715 192.8975 101.055 192.7325 100.375 192.5625 C100.045 191.5725 99.715 190.5825 99.375 189.5625 C98.2303125 189.4078125 98.2303125 189.4078125 97.0625 189.25 C94.07596183 188.48600186 93.40807752 187.76500065 91.375 185.5625 C90.488125 185.046875 89.60125 184.53125 88.6875 184 C87.924375 183.525625 87.16125 183.05125 86.375 182.5625 C86.375 181.9025 86.375 181.2425 86.375 180.5625 C84.725 180.5625 83.075 180.5625 81.375 180.5625 C81.1275 179.923125 80.88 179.28375 80.625 178.625 C79.55937567 176.37508459 79.55937567 176.37508459 77.25 175.8125 C76.63125 175.73 76.0125 175.6475 75.375 175.5625 C75.375 174.9025 75.375 174.2425 75.375 173.5625 C74.281875 173.294375 73.18875 173.02625 72.0625 172.75 C68.6106132 171.63837544 67.62095351 171.14534654 65.375 168.5625 C64.385 168.2325 63.395 167.9025 62.375 167.5625 C62.375 166.5725 62.375 165.5825 62.375 164.5625 C61.50875 164.48 60.6425 164.3975 59.75 164.3125 C55.81831356 163.4387919 53.48938378 162.09746354 50.375 159.5625 C49.5 157.3125 49.5 157.3125 49.375 155.5625 C47.395 155.2325 45.415 154.9025 43.375 154.5625 C43.045 153.5725 42.715 152.5825 42.375 151.5625 C40.725 151.2325 39.075 150.9025 37.375 150.5625 C37.045 149.5725 36.715 148.5825 36.375 147.5625 C35.694375 147.500625 35.01375 147.43875 34.3125 147.375 C30.4485633 146.30625155 27.22747255 144.40675217 24.375 141.5625 C24.375 140.5725 24.375 139.5825 24.375 138.5625 C23.0446875 138.4078125 23.0446875 138.4078125 21.6875 138.25 C18.27398744 137.54153513 16.13576472 136.67367302 13.375 134.5625 C13.375 133.5725 13.375 132.5825 13.375 131.5625 C12.55 131.52125 11.725 131.48 10.875 131.4375 C6.22256227 130.27439057 2.83089929 127.86928688 -0.625 124.5625 C-0.625 123.9025 -0.625 123.2425 -0.625 122.5625 C-2.935 121.9025 -5.245 121.2425 -7.625 120.5625 C-7.625 119.9025 -7.625 119.2425 -7.625 118.5625 C-8.264375 118.459375 -8.90375 118.35625 -9.5625 118.25 C-10.243125 118.023125 -10.92375 117.79625 -11.625 117.5625 C-11.955 116.5725 -12.285 115.5825 -12.625 114.5625 C-13.346875 114.48 -14.06875 114.3975 -14.8125 114.3125 C-18.20749638 113.40716763 -19.99152834 111.84946223 -22.625 109.5625 C-23.615 108.9025 -24.605 108.2425 -25.625 107.5625 C-25.625 106.9025 -25.625 106.2425 -25.625 105.5625 C-26.285 105.5625 -26.945 105.5625 -27.625 105.5625 C-27.74127503 101.97944008 -27.8122736 98.39686583 -27.875 94.8125 C-27.92527344 93.28882813 -27.92527344 93.28882813 -27.9765625 91.734375 C-28.07372457 84.35005741 -28.07372457 84.35005741 -26.09375 80.875 C-22.68869561 79.06471792 -19.62382989 79.12824749 -15.875 79.3125 C-15.17761719 79.33054687 -14.48023438 79.34859375 -13.76171875 79.3671875 C-12.04888461 79.41411446 -10.33676176 79.48585395 -8.625 79.5625 C-8.295 80.5525 -7.965 81.5425 -7.625 82.5625 C-6.84125 82.706875 -6.0575 82.85125 -5.25 83 C-2.625 83.5625 -2.625 83.5625 -0.625 84.5625 C-0.625 85.2225 -0.625 85.8825 -0.625 86.5625 C0.15875 86.830625 0.9425 87.09875 1.75 87.375 C4.375 88.5625 4.375 88.5625 6.375 91.5625 C9.42929073 92.77534876 9.42929073 92.77534876 12.375 93.5625 C12.375 94.2225 12.375 94.8825 12.375 95.5625 C13.014375 95.665625 13.65375 95.76875 14.3125 95.875 C14.993125 96.101875 15.67375 96.32875 16.375 96.5625 C16.705 97.5525 17.035 98.5425 17.375 99.5625 C18.1175 99.665625 18.86 99.76875 19.625 99.875 C22.5723519 100.61183797 24.15883074 101.51049142 26.375 103.5625 C26.375 104.2225 26.375 104.8825 26.375 105.5625 C27.365 105.5625 28.355 105.5625 29.375 105.5625 C29.375 106.5525 29.375 107.5425 29.375 108.5625 C31.685 108.8925 33.995 109.2225 36.375 109.5625 C36.375 110.2225 36.375 110.8825 36.375 111.5625 C37.035 111.789375 37.695 112.01625 38.375 112.25 C48.415 116.6425 48.415 116.6425 50.375 120.5625 C51.220625 121.0575 52.06625 121.5525 52.9375 122.0625 C53.741875 122.5575 54.54625 123.0525 55.375 123.5625 C55.375 124.2225 55.375 124.8825 55.375 125.5625 C57.025 125.5625 58.675 125.5625 60.375 125.5625 C60.705 126.5525 61.035 127.5425 61.375 128.5625 C64.38347418 129.78770264 64.38347418 129.78770264 67.375 130.5625 C67.375 131.2225 67.375 131.8825 67.375 132.5625 C68.15875 132.871875 68.9425 133.18125 69.75 133.5 C72.375 134.5625 72.375 134.5625 74.375 135.5625 C74.375 136.5525 74.375 137.5425 74.375 138.5625 C75.179375 138.68625 75.98375 138.81 76.8125 138.9375 C77.658125 139.14375 78.50375 139.35 79.375 139.5625 C79.705 140.2225 80.035 140.8825 80.375 141.5625 C82.02491582 142.26960678 83.6957762 142.92812656 85.375 143.5625 C88.99586262 145.22809681 91.63669709 146.69972878 94.375 149.5625 C95.07625 149.913125 95.7775 150.26375 96.5 150.625 C98.375 151.5625 98.375 151.5625 99.375 153.5625 C101.01863134 154.28409424 102.68550386 154.95601421 104.375 155.5625 C104.375 156.5525 104.375 157.5425 104.375 158.5625 C105.035 158.624375 105.695 158.68625 106.375 158.75 C110.58454332 159.89008465 113.77430619 162.15734906 117.375 164.5625 C117.973125 164.94148437 118.57125 165.32046875 119.1875 165.7109375 C123.24712898 168.30675795 123.24712898 168.30675795 124.375 170.5625 C125.2 170.8925 126.025 171.2225 126.875 171.5625 C129.375 172.5625 129.375 172.5625 130.375 174.5625 C132.35666034 175.5983679 134.35973831 176.59362419 136.375 177.5625 C141.22115385 180.25480769 141.22115385 180.25480769 142.375 182.5625 C144.3467304 183.61714649 146.35262948 184.60855164 148.375 185.5625 C150.375 186.5625 152.375 187.5625 154.375 188.5625 C154.375 189.5525 154.375 190.5425 154.375 191.5625 C154.99375 191.706875 155.6125 191.85125 156.25 192 C158.375 192.5625 158.375 192.5625 160.375 193.5625 C160.375 194.2225 160.375 194.8825 160.375 195.5625 C161.15875 195.645 161.9425 195.7275 162.75 195.8125 C163.61625 196.06 164.4825 196.3075 165.375 196.5625 C166.07437532 197.87897119 166.74229133 199.21272151 167.375 200.5625 C169.34580157 201.30526031 169.34580157 201.30526031 171.375 201.5625 C172.035 201.8925 172.695 202.2225 173.375 202.5625 C173.375 203.2225 173.375 203.8825 173.375 204.5625 C175.025 204.8925 176.675 205.2225 178.375 205.5625 C178.705 206.5525 179.035 207.5425 179.375 208.5625 C180.695 208.5625 182.015 208.5625 183.375 208.5625 C184.8125 209.875 184.8125 209.875 186.375 211.5625 C187.261875 212.078125 188.14875 212.59375 189.0625 213.125 C189.825625 213.599375 190.58875 214.07375 191.375 214.5625 C191.375 215.2225 191.375 215.8825 191.375 216.5625 C192.3340625 216.7171875 192.3340625 216.7171875 193.3125 216.875 C193.993125 217.101875 194.67375 217.32875 195.375 217.5625 C195.705 218.5525 196.035 219.5425 196.375 220.5625 C197.365 220.5625 198.355 220.5625 199.375 220.5625 C199.375 219.9025 199.375 219.2425 199.375 218.5625 C199.99375 218.315 200.6125 218.0675 201.25 217.8125 C203.72568687 216.35621361 204.32625002 215.18437494 205.375 212.5625 C206.035 212.5625 206.695 212.5625 207.375 212.5625 C207.375 210.5825 207.375 208.6025 207.375 206.5625 C207.99375 206.315 208.6125 206.0675 209.25 205.8125 C211.49831869 204.75334075 211.49831869 204.75334075 212.30078125 202.6640625 C213.4898046 200.33790045 214.64706331 199.28908445 216.6875 197.6875 C219.12620732 195.69080838 221.20941618 193.70494331 223.1875 191.25 C225.375 188.5625 225.375 188.5625 227.375 187.5625 C227.04539784 182.54714948 227.04539784 182.54714948 224.375 178.5625 C223.55859375 176.72265625 223.55859375 176.72265625 222.8125 174.625 C222.56371094 173.93535156 222.31492187 173.24570313 222.05859375 172.53515625 C221.48559529 170.88164641 220.92839154 169.22267463 220.375 167.5625 C219.385 167.5625 218.395 167.5625 217.375 167.5625 C215.375 164.5625 215.375 164.5625 214.375 161.5 C213.58878109 158.48194266 213.58878109 158.48194266 211.375 156.5625 C210.75 153.9375 210.75 153.9375 210.375 151.5625 C209.776875 152.2225 209.17875 152.8825 208.5625 153.5625 C206.375 155.5625 206.375 155.5625 203.375 155.5625 C203.375 156.5525 203.375 157.5425 203.375 158.5625 C200.79491408 159.85254296 198.81758426 159.76660224 195.9375 159.8125 C194.48537109 159.85117187 194.48537109 159.85117187 193.00390625 159.890625 C189.9481498 159.50922301 189.31111877 158.84803665 187.375 156.5625 C184.77584462 155.37222016 184.77584462 155.37222016 182.375 154.5625 C182.375 153.5725 182.375 152.5825 182.375 151.5625 C180.065 151.2325 177.755 150.9025 175.375 150.5625 C175.045 149.5725 174.715 148.5825 174.375 147.5625 C172.52144103 146.98537195 172.52144103 146.98537195 170.375 146.5625 C168.26953125 145.44140625 168.26953125 145.44140625 166.1875 144.125 C165.49269531 143.69316406 164.79789063 143.26132813 164.08203125 142.81640625 C162.375 141.5625 162.375 141.5625 161.375 139.5625 C158.78814734 137.86256825 156.14369755 136.44684878 153.375 135.0625 C147.80357143 132.27678571 147.80357143 132.27678571 145.375 130.5625 C145.375 129.5725 145.375 128.5825 145.375 127.5625 C144.2303125 127.376875 144.2303125 127.376875 143.0625 127.1875 C140.375 126.5625 140.375 126.5625 137.375 124.5625 C137.375 123.9025 137.375 123.2425 137.375 122.5625 C136.50875 122.294375 135.6425 122.02625 134.75 121.75 C125.91432584 118.64115169 125.91432584 118.64115169 124.375 115.5625 C123.42625 115.088125 122.4775 114.61375 121.5 114.125 C118.75435579 112.7521779 117.42520373 111.71033248 115.375 109.5625 C114.385 109.2325 113.395 108.9025 112.375 108.5625 C112.375 107.5725 112.375 106.5825 112.375 105.5625 C111.385 105.4696875 111.385 105.4696875 110.375 105.375 C106.88487403 104.42975755 104.44296917 102.8691031 101.44140625 100.8984375 C99.47973818 99.63021353 97.48675258 98.49430429 95.4375 97.375 C92.375 95.5625 92.375 95.5625 91.375 93.5625 C90.529375 93.0675 89.68375 92.5725 88.8125 92.0625 C88.008125 91.5675 87.20375 91.0725 86.375 90.5625 C86.375 89.9025 86.375 89.2425 86.375 88.5625 C84.395 88.2325 82.415 87.9025 80.375 87.5625 C80.375 86.9025 80.375 86.2425 80.375 85.5625 C78.725 85.2325 77.075 84.9025 75.375 84.5625 C75.375 83.5725 75.375 82.5825 75.375 81.5625 C74.6325 81.459375 73.89 81.35625 73.125 81.25 C70.1776481 80.51316203 68.59116926 79.61450858 66.375 77.5625 C66.375 76.9025 66.375 76.2425 66.375 75.5625 C64.395 75.0675 64.395 75.0675 62.375 74.5625 C62.375 73.9025 62.375 73.2425 62.375 72.5625 C61.1065625 72.4696875 61.1065625 72.4696875 59.8125 72.375 C55.60712309 71.38100182 52.51111074 69.54087736 49.375 66.5625 C49.375 65.9025 49.375 65.2425 49.375 64.5625 C48.59125 64.418125 47.8075 64.27375 47 64.125 C44.375 63.5625 44.375 63.5625 42.375 62.5625 C42.375 61.5725 42.375 60.5825 42.375 59.5625 C40.725 59.2325 39.075 58.9025 37.375 58.5625 C37.045 57.5725 36.715 56.5825 36.375 55.5625 C35.611875 55.624375 34.84875 55.68625 34.0625 55.75 C30.84452212 55.52548992 30.43992043 54.89675788 28.375 52.5625 C26.27510348 51.38675289 26.27510348 51.38675289 24.375 50.5625 C24.375 49.9025 24.375 49.2425 24.375 48.5625 C23.42625 48.315 22.4775 48.0675 21.5 47.8125 C18.375 46.5625 18.375 46.5625 17 44.4375 C16.79375 43.81875 16.5875 43.2 16.375 42.5625 C15.385 42.5625 14.395 42.5625 13.375 42.5625 C13.045 41.5725 12.715 40.5825 12.375 39.5625 C10.05560793 38.8488409 7.71976551 38.1877708 5.375 37.5625 C2.84005977 36.23741761 0.8539864 35.06144417 -1.125 33 C-2.62750217 31.38059795 -2.62750217 31.38059795 -5.125 30.5625 C-7.70994614 29.52852155 -8.81408315 28.62036006 -10.625 26.5625 C-11.13804688 26.20671875 -11.65109375 25.8509375 -12.1796875 25.484375 C-14.50619844 22.39074423 -14.1376356 18.96802383 -14.125 15.25 C-14.15335938 14.50298828 -14.18171875 13.75597656 -14.2109375 12.98632812 C-14.2244728 9.13215142 -13.86777877 6.26441875 -11.6328125 3.0546875 C-7.6340821 -0.25854626 -5.02899054 -0.24458401 0 0 Z " fill="#FDC418" transform="translate(39.625,46.4375)"/>
<path d="M0 0 C30.03 0 60.06 0 91 0 C91 30.03 91 60.06 91 91 C60.97 91 30.94 91 0 91 C0 60.97 0 30.94 0 0 Z " fill="#00B1EF" transform="translate(144,497)"/>
<path d="M0 0 C30.03 0 60.06 0 91 0 C91 30.03 91 60.06 91 91 C60.97 91 30.94 91 0 91 C0 60.97 0 30.94 0 0 Z " fill="#0053FF" transform="translate(46,497)"/>
<path d="M0 0 C30.03 0 60.06 0 91 0 C91 30.03 91 60.06 91 91 C60.97 91 30.94 91 0 91 C0 60.97 0 30.94 0 0 Z " fill="#00D8FC" transform="translate(144,399)"/>
<path d="M0 0 C30.03 0 60.06 0 91 0 C91 30.03 91 60.06 91 91 C60.97 91 30.94 91 0 91 C0 60.97 0 30.94 0 0 Z " fill="#0099FF" transform="translate(46,399)"/>
<path d="M0 0 C0.69738281 0.01804687 1.39476562 0.03609375 2.11328125 0.0546875 C3.82611539 0.10161446 5.53823824 0.17335395 7.25 0.25 C7.58 1.24 7.91 2.23 8.25 3.25 C9.03375 3.394375 9.8175 3.53875 10.625 3.6875 C13.25 4.25 13.25 4.25 15.25 5.25 C15.25 5.91 15.25 6.57 15.25 7.25 C16.03375 7.518125 16.8175 7.78625 17.625 8.0625 C20.25 9.25 20.25 9.25 22.25 12.25 C25.30429073 13.46284876 25.30429073 13.46284876 28.25 14.25 C28.25 14.91 28.25 15.57 28.25 16.25 C28.889375 16.353125 29.52875 16.45625 30.1875 16.5625 C30.868125 16.789375 31.54875 17.01625 32.25 17.25 C32.745 18.735 32.745 18.735 33.25 20.25 C33.9925 20.353125 34.735 20.45625 35.5 20.5625 C38.4473519 21.29933797 40.03383074 22.19799142 42.25 24.25 C42.25 24.91 42.25 25.57 42.25 26.25 C43.24 26.25 44.23 26.25 45.25 26.25 C45.25 27.24 45.25 28.23 45.25 29.25 C47.56 29.58 49.87 29.91 52.25 30.25 C52.25 30.91 52.25 31.57 52.25 32.25 C53.24 32.5903125 53.24 32.5903125 54.25 32.9375 C64.29 37.33 64.29 37.33 66.25 41.25 C67.095625 41.745 67.94125 42.24 68.8125 42.75 C69.616875 43.245 70.42125 43.74 71.25 44.25 C71.25 44.91 71.25 45.57 71.25 46.25 C72.9 46.25 74.55 46.25 76.25 46.25 C76.58 47.24 76.91 48.23 77.25 49.25 C80.25847418 50.47520264 80.25847418 50.47520264 83.25 51.25 C83.25 51.91 83.25 52.57 83.25 53.25 C84.03375 53.559375 84.8175 53.86875 85.625 54.1875 C88.25 55.25 88.25 55.25 90.25 56.25 C90.25 57.24 90.25 58.23 90.25 59.25 C91.054375 59.37375 91.85875 59.4975 92.6875 59.625 C93.533125 59.83125 94.37875 60.0375 95.25 60.25 C95.58 60.91 95.91 61.57 96.25 62.25 C97.89991582 62.95710678 99.5707762 63.61562656 101.25 64.25 C104.87086262 65.91559681 107.51169709 67.38722878 110.25 70.25 C110.95125 70.600625 111.6525 70.95125 112.375 71.3125 C114.25 72.25 114.25 72.25 115.25 74.25 C116.89363134 74.97159424 118.56050386 75.64351421 120.25 76.25 C120.25 77.24 120.25 78.23 120.25 79.25 C121.24 79.3428125 121.24 79.3428125 122.25 79.4375 C126.45954332 80.57758465 129.64930619 82.84484906 133.25 85.25 C133.848125 85.62898438 134.44625 86.00796875 135.0625 86.3984375 C139.12212898 88.99425795 139.12212898 88.99425795 140.25 91.25 C141.075 91.58 141.9 91.91 142.75 92.25 C145.25 93.25 145.25 93.25 146.25 95.25 C148.23166034 96.2858679 150.23473831 97.28112419 152.25 98.25 C157.09615385 100.94230769 157.09615385 100.94230769 158.25 103.25 C160.2217304 104.30464649 162.22762948 105.29605164 164.25 106.25 C166.25 107.25 168.25 108.25 170.25 109.25 C170.25 110.24 170.25 111.23 170.25 112.25 C170.86875 112.394375 171.4875 112.53875 172.125 112.6875 C174.25 113.25 174.25 113.25 176.25 114.25 C176.25 114.91 176.25 115.57 176.25 116.25 C177.03375 116.3325 177.8175 116.415 178.625 116.5 C179.49125 116.7475 180.3575 116.995 181.25 117.25 C181.94937532 118.56647119 182.61729133 119.90022151 183.25 121.25 C185.22080157 121.99276031 185.22080157 121.99276031 187.25 122.25 C187.91 122.58 188.57 122.91 189.25 123.25 C189.25 123.91 189.25 124.57 189.25 125.25 C190.9 125.58 192.55 125.91 194.25 126.25 C194.58 127.24 194.91 128.23 195.25 129.25 C196.57 129.25 197.89 129.25 199.25 129.25 C200.6875 130.5625 200.6875 130.5625 202.25 132.25 C203.136875 132.765625 204.02375 133.28125 204.9375 133.8125 C205.700625 134.286875 206.46375 134.76125 207.25 135.25 C207.25 135.91 207.25 136.57 207.25 137.25 C208.2090625 137.4046875 208.2090625 137.4046875 209.1875 137.5625 C209.868125 137.789375 210.54875 138.01625 211.25 138.25 C211.58 139.24 211.91 140.23 212.25 141.25 C213.24 141.25 214.23 141.25 215.25 141.25 C215.46820844 146.81431511 215.52622869 150.78180022 211.62890625 155.0078125 C210.40550675 156.22358165 209.16519264 157.4226374 207.90625 158.6015625 C206.04011315 160.3498604 206.04011315 160.3498604 204.25 163.25 C202.93 163.25 201.61 163.25 200.25 163.25 C199.59 164.57 198.93 165.89 198.25 167.25 C197.59 166.92 196.93 166.59 196.25 166.25 C196.25 165.59 196.25 164.93 196.25 164.25 C195.280625 164.12625 194.31125 164.0025 193.3125 163.875 C192.301875 163.66875 191.29125 163.4625 190.25 163.25 C189.92 162.59 189.59 161.93 189.25 161.25 C187.5175 160.5075 187.5175 160.5075 185.75 159.75 C182.25 158.25 182.25 158.25 181.25 156.25 C180.59 155.92 179.93 155.59 179.25 155.25 C177.25 154.25 177.25 154.25 176.25 152.25 C175.26 151.92 174.27 151.59 173.25 151.25 C172.26 150.92 171.27 150.59 170.25 150.25 C169.92 149.59 169.59 148.93 169.25 148.25 C167.23330173 147.11649466 167.23330173 147.11649466 165.25 146.25 C165.25 145.59 165.25 144.93 165.25 144.25 C162.94 143.59 160.63 142.93 158.25 142.25 C157.92 140.93 157.59 139.61 157.25 138.25 C155.6 137.92 153.95 137.59 152.25 137.25 C151.92 136.26 151.59 135.27 151.25 134.25 C150.46625 134.311875 149.6825 134.37375 148.875 134.4375 C148.00875 134.375625 147.1425 134.31375 146.25 134.25 C145.59 133.26 144.93 132.27 144.25 131.25 C143.26 130.92 142.27 130.59 141.25 130.25 C140.816875 129.79625 140.38375 129.3425 139.9375 128.875 C137.66275431 126.68450415 135.09353977 125.57698522 132.25 124.25 C132.25 123.59 132.25 122.93 132.25 122.25 C130.93 121.92 129.61 121.59 128.25 121.25 C128.25 120.26 128.25 119.27 128.25 118.25 C125.94 117.92 123.63 117.59 121.25 117.25 C120.92 116.26 120.59 115.27 120.25 114.25 C119.59 114.085 118.93 113.92 118.25 113.75 C117.59 113.585 116.93 113.42 116.25 113.25 C115.92 112.26 115.59 111.27 115.25 110.25 C114.486875 110.146875 113.72375 110.04375 112.9375 109.9375 C109.95096183 109.17350186 109.28307752 108.45250065 107.25 106.25 C106.363125 105.734375 105.47625 105.21875 104.5625 104.6875 C103.799375 104.213125 103.03625 103.73875 102.25 103.25 C102.25 102.59 102.25 101.93 102.25 101.25 C100.6 101.25 98.95 101.25 97.25 101.25 C97.0025 100.610625 96.755 99.97125 96.5 99.3125 C95.43437567 97.06258459 95.43437567 97.06258459 93.125 96.5 C92.50625 96.4175 91.8875 96.335 91.25 96.25 C91.25 95.59 91.25 94.93 91.25 94.25 C90.156875 93.981875 89.06375 93.71375 87.9375 93.4375 C84.4856132 92.32587544 83.49595351 91.83284654 81.25 89.25 C79.765 88.755 79.765 88.755 78.25 88.25 C78.25 87.26 78.25 86.27 78.25 85.25 C77.38375 85.1675 76.5175 85.085 75.625 85 C71.69331356 84.1262919 69.36438378 82.78496354 66.25 80.25 C65.375 78 65.375 78 65.25 76.25 C63.27 75.92 61.29 75.59 59.25 75.25 C58.92 74.26 58.59 73.27 58.25 72.25 C56.6 71.92 54.95 71.59 53.25 71.25 C52.92 70.26 52.59 69.27 52.25 68.25 C51.2290625 68.1571875 51.2290625 68.1571875 50.1875 68.0625 C46.3235633 66.99375155 43.10247255 65.09425217 40.25 62.25 C40.25 61.26 40.25 60.27 40.25 59.25 C39.363125 59.146875 38.47625 59.04375 37.5625 58.9375 C34.14898744 58.22903513 32.01076472 57.36117302 29.25 55.25 C29.25 54.26 29.25 53.27 29.25 52.25 C28.425 52.20875 27.6 52.1675 26.75 52.125 C22.09756227 50.96189057 18.70589929 48.55678688 15.25 45.25 C15.25 44.59 15.25 43.93 15.25 43.25 C12.94 42.59 10.63 41.93 8.25 41.25 C8.25 40.59 8.25 39.93 8.25 39.25 C7.610625 39.146875 6.97125 39.04375 6.3125 38.9375 C5.631875 38.710625 4.95125 38.48375 4.25 38.25 C3.755 36.765 3.755 36.765 3.25 35.25 C2.528125 35.1675 1.80625 35.085 1.0625 35 C-2.33249638 34.09466763 -4.11652834 32.53696223 -6.75 30.25 C-7.74 29.59 -8.73 28.93 -9.75 28.25 C-9.75 27.59 -9.75 26.93 -9.75 26.25 C-10.41 26.25 -11.07 26.25 -11.75 26.25 C-11.86627503 22.66694008 -11.9372736 19.08436583 -12 15.5 C-12.03351562 14.48421875 -12.06703125 13.4684375 -12.1015625 12.421875 C-12.19872457 5.03755741 -12.19872457 5.03755741 -10.21875 1.5625 C-6.81369561 -0.24778208 -3.74882989 -0.18425251 0 0 Z " fill="#00DBE4" transform="translate(23.75,125.75)"/>
<path d="M0 0 C0.763125 0.00193359 1.52625 0.00386719 2.3125 0.00585938 C7.8341284 0.13663478 7.8341284 0.13663478 10.23046875 2.0234375 C10.60816406 2.53132813 10.98585938 3.03921875 11.375 3.5625 C13.97415538 4.75277984 13.97415538 4.75277984 16.375 5.5625 C16.375 6.2225 16.375 6.8825 16.375 7.5625 C17.8290625 7.995625 17.8290625 7.995625 19.3125 8.4375 C22.375 9.5625 22.375 9.5625 23.375 11.5625 C25.35022846 12.61058041 27.34981509 13.6145411 29.375 14.5625 C29.375 15.2225 29.375 15.8825 29.375 16.5625 C30.096875 16.665625 30.81875 16.76875 31.5625 16.875 C37.06280867 18.2195199 41.18950503 21.86351534 45.60546875 25.2578125 C47.34722535 26.61979524 47.34722535 26.61979524 49.375 27.5625 C49.375 28.2225 49.375 28.8825 49.375 29.5625 C51.025 29.8925 52.675 30.2225 54.375 30.5625 C54.87 32.0475 54.87 32.0475 55.375 33.5625 C56.055625 33.624375 56.73625 33.68625 57.4375 33.75 C61.32951162 34.82651385 64.40944754 36.81915032 67.375 39.5625 C67.375 40.2225 67.375 40.8825 67.375 41.5625 C68.24125 41.81 69.1075 42.0575 70 42.3125 C73.58560064 43.64050024 76.33827987 45.24880848 79.375 47.5625 C79.375 48.2225 79.375 48.8825 79.375 49.5625 C80.055625 49.645 80.73625 49.7275 81.4375 49.8125 C85.36499525 50.81526474 87.99757557 52.28923356 91.375 54.5625 C92.3125 56.8125 92.3125 56.8125 92.375 58.5625 C93.24125 58.645 94.1075 58.7275 95 58.8125 C98.90762781 59.68086174 101.27491802 61.05290983 104.375 63.5625 C104.375 64.5525 104.375 65.5425 104.375 66.5625 C105.11105469 66.50449219 105.84710938 66.44648437 106.60546875 66.38671875 C109.86846918 66.59382033 111.12859423 67.39437802 113.6875 69.375 C114.38488281 69.89707031 115.08226562 70.41914062 115.80078125 70.95703125 C117.375 72.5625 117.375 72.5625 117.375 75.5625 C118.509375 75.68625 119.64375 75.81 120.8125 75.9375 C121.988125 76.14375 123.16375 76.35 124.375 76.5625 C124.705 77.2225 125.035 77.8825 125.375 78.5625 C127.07580053 79.55052893 128.81130788 80.47931604 130.5625 81.375 C141.07750221 86.96750443 141.07750221 86.96750443 143.375 91.5625 C145.6890622 92.29325648 148.02328869 92.96388258 150.375 93.5625 C150.375 94.2225 150.375 94.8825 150.375 95.5625 C151.695 95.8925 153.015 96.2225 154.375 96.5625 C154.375 97.5525 154.375 98.5425 154.375 99.5625 C155.468125 99.645 156.56125 99.7275 157.6875 99.8125 C161.375 100.5625 161.375 100.5625 163.125 102.5625 C163.74375 103.5525 163.74375 103.5525 164.375 104.5625 C165.365 104.8925 166.355 105.2225 167.375 105.5625 C167.375 106.2225 167.375 106.8825 167.375 107.5625 C168.509375 107.85125 169.64375 108.14 170.8125 108.4375 C172.5759375 108.994375 172.5759375 108.994375 174.375 109.5625 C174.705 110.2225 175.035 110.8825 175.375 111.5625 C178.13753318 113.15439312 180.96828719 114.57941694 183.80859375 116.02734375 C186.375 117.5625 186.375 117.5625 188.375 120.5625 C190.03316784 121.25003301 191.69959336 121.91811283 193.375 122.5625 C193.705 123.2225 194.035 123.8825 194.375 124.5625 C195.15875 124.830625 195.9425 125.09875 196.75 125.375 C200.10783095 126.89401876 200.65492812 128.33736522 202.375 131.5625 C203.24516837 132.67047836 204.12052232 133.77439651 205 134.875 C207.81074829 138.70401339 208.05227658 141.88301044 208.375 146.5625 C208.705 146.8925 209.035 147.2225 209.375 147.5625 C209.08769945 149.90194736 208.75563221 152.2364143 208.375 154.5625 C206.725 154.8925 205.075 155.2225 203.375 155.5625 C203.375 156.5525 203.375 157.5425 203.375 158.5625 C200.79491408 159.85254296 198.81758426 159.76660224 195.9375 159.8125 C194.48537109 159.85117187 194.48537109 159.85117187 193.00390625 159.890625 C189.9481498 159.50922301 189.31111877 158.84803665 187.375 156.5625 C184.77584462 155.37222016 184.77584462 155.37222016 182.375 154.5625 C182.375 153.5725 182.375 152.5825 182.375 151.5625 C180.065 151.2325 177.755 150.9025 175.375 150.5625 C175.045 149.5725 174.715 148.5825 174.375 147.5625 C172.52144103 146.98537195 172.52144103 146.98537195 170.375 146.5625 C168.26953125 145.44140625 168.26953125 145.44140625 166.1875 144.125 C165.49269531 143.69316406 164.79789063 143.26132813 164.08203125 142.81640625 C162.375 141.5625 162.375 141.5625 161.375 139.5625 C158.78814734 137.86256825 156.14369755 136.44684878 153.375 135.0625 C147.80357143 132.27678571 147.80357143 132.27678571 145.375 130.5625 C145.375 129.5725 145.375 128.5825 145.375 127.5625 C144.2303125 127.376875 144.2303125 127.376875 143.0625 127.1875 C140.375 126.5625 140.375 126.5625 137.375 124.5625 C137.375 123.9025 137.375 123.2425 137.375 122.5625 C136.50875 122.294375 135.6425 122.02625 134.75 121.75 C125.91432584 118.64115169 125.91432584 118.64115169 124.375 115.5625 C123.42625 115.088125 122.4775 114.61375 121.5 114.125 C118.75435579 112.7521779 117.42520373 111.71033248 115.375 109.5625 C114.385 109.2325 113.395 108.9025 112.375 108.5625 C112.375 107.5725 112.375 106.5825 112.375 105.5625 C111.385 105.4696875 111.385 105.4696875 110.375 105.375 C106.88487403 104.42975755 104.44296917 102.8691031 101.44140625 100.8984375 C99.47973818 99.63021353 97.48675258 98.49430429 95.4375 97.375 C92.375 95.5625 92.375 95.5625 91.375 93.5625 C90.529375 93.0675 89.68375 92.5725 88.8125 92.0625 C88.008125 91.5675 87.20375 91.0725 86.375 90.5625 C86.375 89.9025 86.375 89.2425 86.375 88.5625 C84.395 88.2325 82.415 87.9025 80.375 87.5625 C80.375 86.9025 80.375 86.2425 80.375 85.5625 C78.725 85.2325 77.075 84.9025 75.375 84.5625 C75.375 83.5725 75.375 82.5825 75.375 81.5625 C74.6325 81.459375 73.89 81.35625 73.125 81.25 C70.1776481 80.51316203 68.59116926 79.61450858 66.375 77.5625 C66.375 76.9025 66.375 76.2425 66.375 75.5625 C64.395 75.0675 64.395 75.0675 62.375 74.5625 C62.375 73.9025 62.375 73.2425 62.375 72.5625 C61.1065625 72.4696875 61.1065625 72.4696875 59.8125 72.375 C55.60712309 71.38100182 52.51111074 69.54087736 49.375 66.5625 C49.375 65.9025 49.375 65.2425 49.375 64.5625 C48.59125 64.418125 47.8075 64.27375 47 64.125 C44.375 63.5625 44.375 63.5625 42.375 62.5625 C42.375 61.5725 42.375 60.5825 42.375 59.5625 C40.725 59.2325 39.075 58.9025 37.375 58.5625 C37.045 57.5725 36.715 56.5825 36.375 55.5625 C35.611875 55.624375 34.84875 55.68625 34.0625 55.75 C30.84452212 55.52548992 30.43992043 54.89675788 28.375 52.5625 C26.27510348 51.38675289 26.27510348 51.38675289 24.375 50.5625 C24.375 49.9025 24.375 49.2425 24.375 48.5625 C23.42625 48.315 22.4775 48.0675 21.5 47.8125 C18.375 46.5625 18.375 46.5625 17 44.4375 C16.79375 43.81875 16.5875 43.2 16.375 42.5625 C15.385 42.5625 14.395 42.5625 13.375 42.5625 C13.045 41.5725 12.715 40.5825 12.375 39.5625 C10.05560793 38.8488409 7.71976551 38.1877708 5.375 37.5625 C2.84005977 36.23741761 0.8539864 35.06144417 -1.125 33 C-2.62750217 31.38059795 -2.62750217 31.38059795 -5.125 30.5625 C-7.70994614 29.52852155 -8.81408315 28.62036006 -10.625 26.5625 C-11.13804688 26.20671875 -11.65109375 25.8509375 -12.1796875 25.484375 C-14.50619844 22.39074423 -14.1376356 18.96802383 -14.125 15.25 C-14.15335938 14.50298828 -14.18171875 13.75597656 -14.2109375 12.98632812 C-14.2244728 9.13215142 -13.86777877 6.26441875 -11.6328125 3.0546875 C-7.6340821 -0.25854626 -5.02899054 -0.24458401 0 0 Z " fill="#00DCE2" transform="translate(39.625,46.4375)"/>
<path d="M0 0 C0.33 0 0.66 0 1 0 C2.0686948 14.13052012 2.0686948 14.13052012 -0.41796875 18.48046875 C-2.18801173 20.19012647 -3.97865221 21.60161069 -6 23 C-6.7425 23.763125 -7.485 24.52625 -8.25 25.3125 C-11.48792387 28.43478373 -13.59851605 29.29285052 -18 29.3125 C-19.299375 29.33763672 -19.299375 29.33763672 -20.625 29.36328125 C-23.4116129 28.93703947 -24.26608617 28.16168863 -26 26 C-25.67 25.34 -25.34 24.68 -25 24 C-24.34773438 24.05800781 -23.69546875 24.11601562 -23.0234375 24.17578125 C-16.88914997 24.55871277 -16.88914997 24.55871277 -11.625 21.8125 C-5.57200797 15.3271514 -3.05360462 10.48823242 -1 2 C-0.67 1.34 -0.34 0.68 0 0 Z " fill="#3FEAA8" transform="translate(351,310)"/>
<path d="M0 0 C0.99 0 1.98 0 3 0 C3.21820844 5.56431511 3.27622869 9.53180022 -0.62109375 13.7578125 C-1.84449325 14.97358165 -3.08480736 16.1726374 -4.34375 17.3515625 C-6.20988685 19.0998604 -6.20988685 19.0998604 -8 22 C-9.32 22 -10.64 22 -12 22 C-12.66 23.32 -13.32 24.64 -14 26 C-14.33203125 23.859375 -14.33203125 23.859375 -14 21 C-12.2822351 18.91185116 -10.61808893 17.11468712 -8.6875 15.25 C-3.9743323 10.45401425 -1.45411346 6.71129291 0 0 Z " fill="#48C9BA" transform="translate(236,267)"/>
<path d="M0 0 C0.33 0 0.66 0 1 0 C1.64068751 6.72721888 -1.50245612 10.17509978 -5.5 15.1875 C-7.64855719 17.60462684 -9.25586831 19.35154679 -12 21 C-14.578125 21.07421875 -14.578125 21.07421875 -17.25 20.6875 C-18.14203125 20.56761719 -19.0340625 20.44773437 -19.953125 20.32421875 C-20.62859375 20.21722656 -21.3040625 20.11023438 -22 20 C-22 19.01 -22 18.02 -22 17 C-21.32453125 16.96261719 -20.6490625 16.92523438 -19.953125 16.88671875 C-19.06109375 16.82097656 -18.1690625 16.75523437 -17.25 16.6875 C-16.36828125 16.62949219 -15.4865625 16.57148438 -14.578125 16.51171875 C-11.6187432 15.9243263 -10.17822436 15.06538841 -8 13 C-7.67 12.01 -7.34 11.02 -7 10 C-6.34 9.67 -5.68 9.34 -5 9 C-4.27306096 7.02111039 -3.60183749 5.02045442 -3 3 C-2.34 3 -1.68 3 -1 3 C-0.67 2.01 -0.34 1.02 0 0 Z " fill="#C1CF44" transform="translate(348,314)"/>
<path d="M0 0 C1.42536347 4.74412022 0.92192703 8.44955511 -1 13 C-10.16860764 25.39194626 -10.16860764 25.39194626 -16.2890625 26.36328125 C-17.44535156 26.33814453 -17.44535156 26.33814453 -18.625 26.3125 C-19.40101563 26.30863281 -20.17703125 26.30476563 -20.9765625 26.30078125 C-23 26 -23 26 -25 24 C-24.34773438 24.05800781 -23.69546875 24.11601562 -23.0234375 24.17578125 C-16.88914997 24.55871277 -16.88914997 24.55871277 -11.625 21.8125 C-5.57200797 15.3271514 -3.05360462 10.48823242 -1 2 C-0.67 1.34 -0.34 0.68 0 0 Z " fill="#7BDD7A" transform="translate(351,310)"/>
<path d="M0 0 C0.33 0 0.66 0 1 0 C1.21820844 5.56431511 1.27622869 9.53180022 -2.62109375 13.7578125 C-3.84449325 14.97358165 -5.08480736 16.1726374 -6.34375 17.3515625 C-8.20988685 19.0998604 -8.20988685 19.0998604 -10 22 C-11.32 21.67 -12.64 21.34 -14 21 C-13.31292969 20.43152344 -12.62585938 19.86304688 -11.91796875 19.27734375 C-4.95884859 13.31380587 -1.39516359 9.20807968 0 0 Z " fill="#9AC56F" transform="translate(238,267)"/>
<path d="M0 0 C0.75 1.625 0.75 1.625 1 4 C-2.19724632 10.10383388 -7.35343597 14.97615086 -12 20 C-12.33 19.01 -12.66 18.02 -13 17 C-11.63671875 14.95703125 -11.63671875 14.95703125 -9.6875 12.8125 C-9.05199219 12.09707031 -8.41648438 11.38164062 -7.76171875 10.64453125 C-6 9 -6 9 -4 9 C-3.71125 8.2575 -3.4225 7.515 -3.125 6.75 C-2.17697356 4.43260203 -1.15154089 2.22082885 0 0 Z " fill="#0ECBEF" transform="translate(235,268)"/>
<path d="M0 0 C1.32 0 2.64 0 4 0 C4.04254356 1.99954746 4.04080783 4.00041636 4 6 C3 7 3 7 -0.0625 7.0625 C-1.5165625 7.0315625 -1.5165625 7.0315625 -3 7 C-2.25 2.25 -2.25 2.25 0 0 Z " fill="#AB830F" transform="translate(241,163)"/>
<path d="M0 0 C1.35156675 1.65191491 2.679762 3.32294092 4 5 C4.46664062 5.5775 4.93328125 6.155 5.4140625 6.75 C5.87554687 7.348125 6.33703125 7.94625 6.8125 8.5625 C7.25207031 9.12066406 7.69164062 9.67882812 8.14453125 10.25390625 C9 12 9 12 8.63671875 14.21484375 C8.42660156 14.80394531 8.21648437 15.39304688 8 16 C7.608125 15.46375 7.21625 14.9275 6.8125 14.375 C4.94210247 11.84233047 4.94210247 11.84233047 2.3125 9.125 C-0.25247471 5.65881795 -0.49944304 4.19532154 0 0 Z " fill="#4DC9B5" transform="translate(238,173)"/>
<path d="M0 0 C0.66 0.33 1.32 0.66 2 1 C1.67 3.64 1.34 6.28 1 9 C-0.423125 9.4021875 -0.423125 9.4021875 -1.875 9.8125 C-5.25267273 10.74986588 -5.25267273 10.74986588 -7 14 C-7.33 12.02 -7.66 10.04 -8 8 C-6.02 7.67 -4.04 7.34 -2 7 C-1.34 4.69 -0.68 2.38 0 0 Z " fill="#DFAF18" transform="translate(246,162)"/>
<path d="M0 0 C0.99 0.33 1.98 0.66 3 1 C4.1194613 3.8914086 4.10768197 6.67762612 4.0625 9.75 C4.05347656 10.54921875 4.04445312 11.3484375 4.03515625 12.171875 C4.01775391 13.07679688 4.01775391 13.07679688 4 14 C1.3184721 10.92307254 0.57912193 8.80265337 0.3125 4.75 C0.24675781 3.85796875 0.18101562 2.9659375 0.11328125 2.046875 C0.07589844 1.37140625 0.03851563 0.6959375 0 0 Z " fill="#CCC643" transform="translate(246,183)"/>
<path d="M0 0 C0.99 0.33 1.98 0.66 3 1 C2.34 1 1.68 1 1 1 C0.9175 1.598125 0.835 2.19625 0.75 2.8125 C-0.28575316 5.83344673 -1.12758598 6.56379299 -4 8 C-7.01735979 8.24451019 -9.98010486 8.17422472 -13 8 C-13 7.67 -13 7.34 -13 7 C-11.7625 6.87625 -10.525 6.7525 -9.25 6.625 C-4.84961782 6.07963945 -4.84961782 6.07963945 -1 4 C-0.19471111 1.94999129 -0.19471111 1.94999129 0 0 Z " fill="#F0C621" transform="translate(340,323)"/>
<path d="M0 0 C0.33 0.99 0.66 1.98 1 3 C0.50628906 3.40992188 0.01257813 3.81984375 -0.49609375 4.2421875 C-1.13675781 4.78101563 -1.77742187 5.31984375 -2.4375 5.875 C-3.07558594 6.40867187 -3.71367187 6.94234375 -4.37109375 7.4921875 C-6.10805004 8.9222757 -6.10805004 8.9222757 -7 11 C-7.66 10.67 -8.32 10.34 -9 10 C-7.8758824 8.70756532 -6.75067408 7.41607925 -5.625 6.125 C-4.99851563 5.40570313 -4.37203125 4.68640625 -3.7265625 3.9453125 C-2.52573166 2.5923402 -1.2791655 1.2791655 0 0 Z " fill="#D3C43B" transform="translate(237,278)"/>
<path d="M0 0 C2.7053871 4.05808065 5 8.04889399 5 13 C4.34 13 3.68 13 3 13 C0.78145293 8.37802694 -0.38281159 5.23175837 0 0 Z " fill="#29CBD7" transform="translate(244,184)"/>
</svg>
